if (_typeface_js && _typeface_js.loadFace) _typeface_js.loadFace({"glyphs":{"¦":{"x_min":267,"x_max":430,"ha":694,"o":"m 267 277 l 430 277 l 430 -237 l 267 -237 l 267 277 m 267 971 l 430 971 l 430 457 l 267 457 l 267 971 "},"Ž":{"x_min":41,"x_max":868,"ha":903,"o":"m 41 0 l 41 200 l 551 798 l 60 798 l 60 999 l 868 999 l 868 798 l 357 200 l 868 200 l 868 0 l 41 0 m 233 1338 l 337 1338 l 451 1203 l 564 1338 l 668 1338 l 537 1088 l 363 1088 l 233 1338 "},"Á":{"x_min":0,"x_max":991,"ha":991,"o":"m 382 390 l 601 390 l 490 734 l 382 390 m 359 999 l 638 999 l 991 0 l 716 0 l 655 183 l 321 183 l 265 0 l 0 0 l 359 999 m 712 1338 l 491 1088 l 387 1088 l 517 1338 l 712 1338 "},"Î":{"x_min":14,"x_max":449,"ha":464,"o":"m 104 0 l 104 999 l 359 999 l 359 0 l 104 0 m 14 1088 l 144 1338 l 318 1338 l 449 1088 l 345 1088 l 232 1222 l 118 1088 l 14 1088 "},"e":{"x_min":43,"x_max":790,"ha":829,"o":"m 284 447 l 558 447 q 520 558 556 518 q 421 599 484 599 q 326 559 361 599 q 284 447 290 520 m 545 233 l 777 233 q 650 44 745 111 q 413 -22 554 -22 q 142 82 242 -22 q 43 365 43 186 q 143 655 43 548 q 413 762 243 762 q 689 653 589 762 q 790 353 790 544 q 789 326 790 336 q 788 311 789 317 l 291 311 q 324 192 291 233 q 422 152 357 152 q 501 172 470 152 q 545 233 532 192 "},"»":{"x_min":52,"x_max":646,"ha":693,"o":"m 390 109 l 390 283 l 529 370 l 390 456 l 390 631 l 646 472 l 646 269 l 390 109 m 52 109 l 52 283 l 192 370 l 52 456 l 52 631 l 308 472 l 308 269 l 52 109 "},"∆":{"x_min":-1,"x_max":999,"ha":996,"o":"m 497 719 l 319 193 l 676 193 l 497 719 m 364 999 l 632 999 l 999 0 l -1 0 l 364 999 "},"ò":{"x_min":43,"x_max":826,"ha":868,"o":"m 291 369 q 328 214 291 268 q 433 160 365 160 q 540 214 502 160 q 578 369 578 269 q 540 523 578 469 q 433 578 502 578 q 327 524 364 578 q 291 369 291 470 m 43 369 q 146 659 43 555 q 433 764 250 764 q 721 659 617 764 q 826 369 826 555 q 721 79 826 184 q 433 -25 617 -25 q 146 79 249 -25 q 43 369 43 183 m 227 1077 l 421 1077 l 552 827 l 447 827 l 227 1077 "},"^":{"x_min":281,"x_max":1107,"ha":1389,"o":"m 596 991 l 791 991 l 1107 609 l 927 609 l 694 841 l 460 609 l 281 609 l 596 991 "},"«":{"x_min":47,"x_max":641,"ha":693,"o":"m 641 109 l 385 269 l 385 472 l 641 631 l 641 456 l 501 370 l 641 283 l 641 109 m 303 109 l 47 269 l 47 472 l 303 631 l 303 456 l 162 370 l 303 283 l 303 109 "},"∙":{"x_min":79,"x_max":330,"ha":410,"o":"m 79 479 q 114 569 79 532 q 203 606 150 606 q 293 569 256 606 q 330 479 330 532 q 293 389 330 426 q 203 353 256 353 q 114 389 150 353 q 79 479 79 426 "},"í":{"x_min":85,"x_max":412,"ha":410,"o":"m 85 0 l 85 737 l 325 737 l 325 0 l 85 0 m 412 1077 l 191 827 l 87 827 l 217 1077 l 412 1077 "},"ˆ":{"x_min":129,"x_max":564,"ha":694,"o":"m 129 827 l 259 1077 l 433 1077 l 564 827 l 460 827 l 347 961 l 233 827 l 129 827 "},"µ":{"x_min":-31,"x_max":854,"ha":892,"o":"m 130 739 l 373 739 l 319 380 q 313 327 315 352 q 311 283 311 302 q 335 196 311 225 q 408 168 359 168 q 501 214 467 168 q 552 363 536 260 l 612 739 l 854 739 l 735 0 l 517 0 l 530 84 q 469 11 502 33 q 388 -11 435 -11 q 316 10 348 -11 q 263 70 283 31 l 208 -290 l -31 -290 l 130 739 "},"č":{"x_min":43,"x_max":770.359375,"ha":803,"o":"m 769 273 q 656 54 750 132 q 408 -24 561 -24 q 143 81 243 -24 q 43 360 43 187 q 144 656 43 548 q 421 764 246 764 q 666 687 573 764 q 770 477 758 611 l 526 477 q 489 554 516 528 q 419 580 462 580 q 324 526 357 580 q 292 368 292 472 q 322 216 292 266 q 416 167 353 167 q 492 193 464 167 q 531 273 520 219 l 769 273 m 193 1077 l 297 1077 l 411 942 l 524 1077 l 628 1077 l 497 827 l 323 827 l 193 1077 "},"’":{"x_min":61.046875,"x_max":317,"ha":378,"o":"m 65 758 l 65 999 l 317 999 l 317 823 q 253 613 317 688 q 61 526 189 539 l 61 609 q 163 660 130 626 q 196 751 196 695 l 196 758 l 65 758 "},"-":{"x_min":65,"x_max":412,"ha":479,"o":"m 65 268 l 65 469 l 412 469 l 412 268 l 65 268 "},"Q":{"x_min":57,"x_max":1060,"ha":1116,"o":"m 652 201 l 550 309 l 670 425 l 768 322 q 791 403 783 360 q 799 497 799 447 q 736 732 799 650 q 556 814 674 814 q 379 732 441 814 q 317 498 317 651 q 378 264 317 345 q 556 183 440 183 q 608 187 584 183 q 652 201 632 192 m 815 33 q 695 -12 759 2 q 559 -28 632 -28 q 192 113 327 -28 q 57 498 57 255 q 191 883 57 742 q 556 1025 326 1025 q 924 883 788 1025 q 1060 499 1060 742 q 1030 296 1060 386 q 945 140 1001 206 l 1053 26 l 933 -89 l 815 33 "},"M":{"x_min":98,"x_max":1180,"ha":1280,"o":"m 98 0 l 98 999 l 449 999 l 581 512 q 613 387 598 448 q 638 269 627 326 q 667 397 651 330 q 704 540 683 463 l 828 999 l 1180 999 l 1180 0 l 947 0 l 947 442 q 949 574 947 489 q 956 769 951 658 l 764 0 l 510 0 l 322 769 q 330 530 327 636 q 333 364 333 423 l 333 0 l 98 0 "},"œ":{"x_min":43,"x_max":1305.359375,"ha":1346,"o":"m 689 65 q 571 -1 639 20 q 422 -24 504 -24 q 145 81 247 -24 q 43 369 43 187 q 146 658 43 554 q 433 762 249 762 q 576 739 511 762 q 690 673 641 717 q 801 740 741 718 q 930 762 860 762 q 1205 653 1106 762 q 1305 353 1305 544 q 1305 327 1305 336 q 1304 311 1304 318 l 806 311 q 839 193 806 233 q 937 154 872 154 q 1017 173 987 154 q 1060 232 1048 193 l 1294 232 q 1168 44 1262 113 q 940 -24 1073 -24 q 795 -1 858 -24 q 689 65 731 20 m 291 369 q 328 211 291 267 q 433 156 365 156 q 540 212 502 156 q 578 369 578 268 q 540 523 578 469 q 433 578 502 578 q 327 523 364 578 q 291 369 291 469 m 800 447 l 1073 447 q 1035 558 1071 518 q 937 599 1000 599 q 842 559 878 599 q 800 447 807 520 "},"{":{"x_min":103,"x_max":606,"ha":694,"o":"m 606 1002 l 606 838 q 591 838 601 838 q 578 839 582 839 q 488 815 511 839 q 466 715 466 791 l 466 553 q 434 417 466 458 q 322 359 403 376 q 434 303 403 343 q 466 168 466 263 l 466 4 q 488 -93 466 -69 q 576 -117 511 -117 q 591 -116 581 -117 q 606 -116 601 -116 l 606 -280 q 577 -280 595 -280 q 550 -281 559 -281 q 428 -273 476 -281 q 347 -248 379 -265 q 290 -188 306 -226 q 275 -57 275 -149 l 275 115 q 241 242 275 205 q 127 279 207 279 q 115 278 124 279 q 103 278 107 278 l 103 442 q 115 441 107 442 q 127 440 123 440 q 241 478 207 440 q 275 606 275 515 l 275 778 q 291 909 275 870 q 347 970 307 948 q 428 995 379 987 q 551 1003 478 1003 q 577 1002 559 1003 q 606 1002 595 1002 "},"¼":{"x_min":82,"x_max":1242,"ha":1265,"o":"m 1030 203 l 1030 414 l 878 203 l 1030 203 m 1028 0 l 1028 108 l 770 108 l 770 211 l 1004 536 l 1177 536 l 1177 206 l 1242 206 l 1242 108 l 1177 108 l 1177 0 l 1028 0 m 285 0 l 860 985 l 984 985 l 408 0 l 285 0 m 222 421 l 222 774 l 82 774 l 82 859 l 94 859 q 211 882 172 859 q 255 957 250 906 l 375 957 l 375 421 l 222 421 "},"#":{"x_min":16,"x_max":1053,"ha":1068,"o":"m 479 571 l 424 413 l 590 413 l 646 571 l 479 571 m 464 994 l 633 994 l 539 728 l 698 728 l 794 994 l 964 994 l 869 728 l 1053 728 l 994 571 l 812 571 l 758 415 l 946 415 l 889 258 l 703 258 l 607 -8 l 437 -8 l 532 258 l 372 258 l 277 -8 l 107 -8 l 201 258 l 16 258 l 74 415 l 257 415 l 313 571 l 121 571 l 179 728 l 368 728 l 464 994 "},"Ê":{"x_min":98,"x_max":873,"ha":928,"o":"m 98 0 l 98 999 l 856 999 l 856 794 l 354 794 l 354 618 l 813 618 l 813 418 l 354 418 l 354 204 l 873 204 l 873 0 l 98 0 m 258 1088 l 388 1338 l 562 1338 l 693 1088 l 589 1088 l 476 1222 l 362 1088 l 258 1088 "},")":{"x_min":4,"x_max":429,"ha":550,"o":"m 4 -290 q 146 27 99 -132 q 193 356 193 187 q 147 681 193 523 q 9 999 102 839 l 178 999 q 366 683 303 845 q 429 354 429 522 q 367 37 429 195 q 180 -290 306 -121 l 4 -290 "},"Å":{"x_min":0,"x_max":991,"ha":991,"o":"m 428 1159 q 448 1108 428 1128 q 498 1088 468 1088 q 549 1108 528 1088 q 570 1159 570 1129 q 549 1209 570 1188 q 498 1231 528 1231 q 448 1210 469 1231 q 428 1159 428 1189 m 322 1159 q 372 1285 322 1234 q 498 1337 423 1337 q 624 1285 572 1337 q 676 1159 676 1233 q 624 1033 676 1084 q 498 982 572 982 q 372 1033 423 982 q 322 1159 322 1084 m 383 390 l 599 390 l 489 734 l 383 390 m 343 950 l 656 950 l 991 0 l 716 0 l 655 183 l 322 183 l 265 0 l 0 0 l 343 950 "},"¸":{"x_min":184,"x_max":554,"ha":694,"o":"m 184 -297 l 184 -204 q 285 -227 238 -219 q 367 -235 332 -235 q 411 -223 396 -235 q 426 -185 426 -211 q 406 -153 426 -164 q 345 -143 387 -143 q 322 -143 331 -143 q 308 -144 314 -143 l 308 0 l 385 0 l 385 -57 l 397 -57 q 513 -90 473 -57 q 554 -187 554 -124 q 509 -292 554 -255 q 381 -329 464 -329 q 293 -321 342 -329 q 184 -297 244 -313 "},"a":{"x_min":46,"x_max":770,"ha":810,"o":"m 504 346 q 406 314 476 328 q 354 302 372 307 q 293 271 311 290 q 275 220 275 252 q 299 157 275 181 q 364 133 323 133 q 464 168 425 133 q 504 261 504 204 l 504 346 m 770 0 l 523 0 q 516 36 519 17 q 510 75 513 55 q 402 0 459 24 q 276 -24 345 -24 q 108 34 170 -24 q 46 192 46 93 q 94 341 46 284 q 241 421 142 398 q 379 448 295 434 q 504 508 504 468 l 504 525 q 479 574 504 557 q 407 591 455 591 q 325 569 356 591 q 288 508 295 548 l 66 508 q 169 693 83 632 q 413 755 255 755 q 579 731 511 755 q 684 659 646 707 q 722 576 711 624 q 733 423 733 529 l 733 143 q 742 65 733 93 q 770 27 751 36 l 770 0 "},"=":{"x_min":172,"x_max":984,"ha":1157,"o":"m 172 340 l 984 340 l 984 184 l 172 184 l 172 340 m 172 644 l 984 644 l 984 487 l 172 487 l 172 644 "},"˚":{"x_min":164,"x_max":532,"ha":694,"o":"m 270 996 q 292 941 270 963 q 348 919 314 919 q 403 941 380 919 q 426 996 426 964 q 403 1052 426 1029 q 348 1075 380 1075 q 292 1052 315 1075 q 270 996 270 1029 m 164 997 q 216 1127 164 1074 q 347 1181 269 1181 q 478 1127 424 1181 q 532 997 532 1074 q 478 866 532 920 q 347 813 424 813 q 216 866 269 813 q 164 997 164 919 "},"ú":{"x_min":79,"x_max":784,"ha":868,"o":"m 784 737 l 784 0 l 548 0 l 548 102 q 450 11 505 40 q 324 -18 395 -18 q 140 44 202 -18 q 79 231 79 107 l 79 737 l 320 737 l 320 325 q 342 200 320 234 q 421 166 365 166 q 514 207 485 166 q 543 343 543 249 l 543 737 l 784 737 m 641 1077 l 420 827 l 316 827 l 446 1077 l 641 1077 "},"¯":{"x_min":139,"x_max":555,"ha":694,"o":"m 139 895 l 139 1009 l 555 1009 l 555 895 l 139 895 "},"Z":{"x_min":41,"x_max":868,"ha":903,"o":"m 41 0 l 41 200 l 551 798 l 60 798 l 60 999 l 868 999 l 868 798 l 357 200 l 868 200 l 868 0 l 41 0 "},"u":{"x_min":79,"x_max":784,"ha":868,"o":"m 784 737 l 784 0 l 548 0 l 548 102 q 450 11 505 40 q 324 -18 395 -18 q 140 44 202 -18 q 79 231 79 107 l 79 737 l 320 737 l 320 325 q 342 200 320 234 q 421 166 365 166 q 514 207 485 166 q 543 343 543 249 l 543 737 l 784 737 "},"k":{"x_min":85,"x_max":835,"ha":840,"o":"m 85 0 l 85 999 l 322 999 l 322 483 l 544 737 l 828 737 l 572 455 l 835 0 l 566 0 l 410 291 l 322 198 l 322 0 l 85 0 "},"Ù":{"x_min":92,"x_max":932,"ha":1023,"o":"m 92 999 l 344 999 l 344 374 q 382 227 344 271 q 512 184 421 184 q 639 227 600 184 q 678 374 678 271 l 678 999 l 932 999 l 932 405 q 907 205 932 279 q 826 79 883 130 q 689 -1 767 25 q 513 -28 611 -28 q 336 -1 414 -28 q 199 79 258 25 q 117 206 142 131 q 92 405 92 281 l 92 999 m 305 1338 l 499 1338 l 630 1088 l 525 1088 l 305 1338 "},"¢":{"x_min":41,"x_max":765,"ha":819,"o":"m 526 273 l 765 273 q 656 55 748 134 q 420 -24 564 -24 q 373 -21 397 -24 q 321 -12 348 -18 l 263 -184 l 184 -184 l 249 7 q 94 143 148 51 q 41 362 41 235 q 143 656 41 547 q 417 765 245 765 q 453 762 434 765 q 498 755 472 760 l 547 906 l 629 906 l 573 737 q 710 639 662 703 q 763 481 757 575 l 532 481 q 523 512 530 497 q 508 540 517 527 l 382 169 q 400 166 391 167 q 418 165 410 165 q 491 192 464 165 q 526 273 518 219 m 438 577 q 429 578 434 578 q 414 579 424 579 q 321 526 353 579 q 290 374 290 474 q 297 284 290 323 q 320 219 305 245 l 438 577 "},"Ş":{"x_min":51,"x_max":895,"ha":947,"o":"m 51 331 l 297 331 q 347 202 299 245 q 485 160 394 160 q 606 185 563 160 q 649 258 649 211 q 638 300 649 281 q 610 328 628 318 q 473 375 582 343 q 290 436 365 407 q 126 549 182 479 q 71 713 71 620 q 178 941 71 857 q 469 1026 286 1026 q 756 937 650 1026 q 862 697 862 848 l 621 697 q 571 799 612 766 q 453 833 530 833 q 352 807 391 833 q 314 742 314 782 q 498 617 314 676 q 549 601 531 606 l 559 597 q 796 498 749 536 q 869 405 844 458 q 895 287 895 352 q 780 55 895 138 q 460 -28 666 -28 q 164 61 265 -28 q 51 331 62 150 m 310 -297 l 310 -204 q 411 -227 364 -219 q 493 -235 458 -235 q 537 -223 522 -235 q 552 -185 552 -211 q 532 -153 552 -164 q 471 -143 513 -143 q 448 -143 457 -143 q 434 -144 440 -143 l 434 0 l 511 0 l 511 -57 l 523 -57 q 639 -90 599 -57 q 680 -187 680 -124 q 635 -292 680 -255 q 507 -329 590 -329 q 419 -321 468 -329 q 310 -297 370 -313 "},"é":{"x_min":43,"x_max":790,"ha":829,"o":"m 284 447 l 558 447 q 520 558 556 518 q 421 599 484 599 q 326 559 361 599 q 284 447 290 520 m 545 233 l 777 233 q 650 44 745 111 q 413 -22 554 -22 q 142 82 242 -22 q 43 365 43 186 q 143 655 43 548 q 413 762 243 762 q 689 653 589 762 q 790 353 790 544 q 789 326 790 336 q 788 311 789 317 l 291 311 q 324 192 291 233 q 422 152 357 152 q 501 172 470 152 q 545 233 532 192 m 622 1077 l 401 827 l 297 827 l 427 1077 l 622 1077 "},"B":{"x_min":98,"x_max":953,"ha":1013,"o":"m 343 608 l 548 608 q 646 632 614 608 q 678 705 678 656 q 648 774 678 751 q 559 798 618 798 l 343 798 l 343 608 m 343 199 l 536 199 q 664 224 627 199 q 701 310 701 249 q 666 391 701 364 q 562 419 631 419 l 343 419 l 343 199 m 98 0 l 98 999 l 583 999 q 840 936 757 999 q 924 743 924 873 q 886 609 924 662 q 773 528 849 557 q 906 448 860 506 q 953 304 953 390 q 914 152 953 220 q 807 47 876 84 q 693 10 760 21 q 489 0 627 0 l 98 0 "},"…":{"x_min":105,"x_max":1283,"ha":1389,"o":"m 105 0 l 105 239 l 356 239 l 356 0 l 105 0 m 568 0 l 568 239 l 819 239 l 819 0 l 568 0 m 1032 0 l 1032 239 l 1283 239 l 1283 0 l 1032 0 "},"H":{"x_min":98,"x_max":962,"ha":1061,"o":"m 98 0 l 98 999 l 355 999 l 355 644 l 705 644 l 705 999 l 962 999 l 962 0 l 705 0 l 705 421 l 355 421 l 355 0 l 98 0 "},"î":{"x_min":-13,"x_max":422,"ha":410,"o":"m 85 0 l 85 737 l 325 737 l 325 0 l 85 0 m -13 827 l 117 1077 l 291 1077 l 422 827 l 318 827 l 205 961 l 91 827 l -13 827 "},"−":{"x_min":172,"x_max":984,"ha":1157,"o":"m 172 494 l 984 494 l 984 335 l 172 335 l 172 494 "},"≠":{"x_min":172,"x_max":984,"ha":1157,"o":"m 809 848 l 923 755 l 831 642 l 984 642 l 984 492 l 728 492 l 606 338 l 984 338 l 984 187 l 506 187 l 340 -21 l 224 71 l 316 187 l 172 187 l 172 338 l 416 338 l 540 492 l 172 492 l 172 642 l 642 642 l 809 848 "},"¥":{"x_min":0,"x_max":905,"ha":907,"o":"m 332 0 l 332 363 l 14 363 l 14 460 l 278 460 l 230 547 l 14 547 l 14 644 l 175 644 l 0 958 l 275 958 l 451 572 l 627 958 l 905 958 l 727 644 l 889 644 l 889 547 l 672 547 l 620 460 l 889 460 l 889 363 l 571 363 l 571 0 l 332 0 "},"U":{"x_min":92,"x_max":932,"ha":1023,"o":"m 92 999 l 344 999 l 344 374 q 382 227 344 271 q 512 184 421 184 q 639 227 600 184 q 678 374 678 271 l 678 999 l 932 999 l 932 405 q 907 205 932 279 q 826 79 883 130 q 689 -1 767 25 q 513 -28 611 -28 q 336 -1 414 -28 q 199 79 258 25 q 117 206 142 131 q 92 405 92 281 l 92 999 "},"Ñ":{"x_min":97,"x_max":964,"ha":1063,"o":"m 97 0 l 97 999 l 374 999 l 562 670 q 649 512 608 590 q 727 356 691 433 q 719 569 722 470 q 717 743 717 668 l 717 999 l 964 999 l 964 0 l 688 0 l 492 337 q 416 471 457 397 q 330 632 376 545 q 341 450 338 534 q 345 301 345 366 l 345 0 l 97 0 m 769 1308 q 713 1177 748 1218 q 620 1136 677 1136 q 593 1137 605 1136 q 568 1143 580 1139 l 506 1160 q 479 1166 491 1164 q 460 1169 468 1169 q 424 1156 438 1169 q 400 1117 409 1144 l 319 1117 q 373 1242 337 1201 q 464 1283 409 1283 q 493 1280 478 1283 q 526 1273 508 1278 l 589 1255 q 607 1251 598 1252 q 628 1250 617 1250 q 665 1264 650 1250 q 688 1308 680 1279 l 769 1308 "},"F":{"x_min":100,"x_max":817,"ha":847,"o":"m 100 0 l 100 999 l 817 999 l 817 791 l 354 791 l 354 585 l 755 585 l 755 378 l 354 378 l 354 0 l 100 0 "},"*":{"x_min":43,"x_max":652,"ha":694,"o":"m 347 578 l 230 408 l 98 500 l 232 663 l 43 715 l 91 866 l 272 802 l 272 999 l 423 999 l 423 802 l 603 866 l 652 715 l 462 663 l 595 500 l 464 408 l 347 578 "},"†":{"x_min":31,"x_max":664,"ha":694,"o":"m 249 -147 l 249 566 l 31 566 l 31 720 l 249 720 l 249 999 l 444 999 l 444 720 l 664 720 l 664 566 l 444 566 l 444 -147 l 249 -147 "},"∕":{"x_min":-232,"x_max":467,"ha":232,"o":"m -232 0 l 343 985 l 467 985 l -108 0 l -232 0 "},"°":{"x_min":18,"x_max":441,"ha":457,"o":"m 230 896 q 149 862 182 896 q 116 783 116 829 q 149 702 116 735 q 230 669 182 669 q 309 702 276 669 q 343 783 343 736 q 309 862 343 829 q 230 896 276 896 m 229 994 q 379 932 317 994 q 441 782 441 870 q 378 633 441 695 q 228 571 316 571 q 79 632 140 571 q 18 782 18 694 q 79 932 18 871 q 229 994 141 994 "},"å":{"x_min":46,"x_max":770,"ha":810,"o":"m 331 964 q 351 914 331 934 q 402 894 371 894 q 453 914 432 894 q 474 964 474 935 q 453 1015 474 994 q 402 1036 432 1036 q 351 1015 372 1036 q 331 964 331 994 m 225 963 q 276 1090 225 1039 q 402 1142 327 1142 q 528 1089 476 1142 q 580 963 580 1037 q 528 839 580 890 q 402 788 477 788 q 276 838 327 788 q 225 963 225 889 m 770 0 l 523 0 q 516 36 519 17 q 510 75 513 55 q 402 0 459 24 q 276 -24 345 -24 q 108 34 170 -24 q 46 192 46 93 q 94 341 46 284 q 241 421 142 398 q 379 448 295 434 q 504 508 504 468 l 504 525 q 479 574 504 557 q 407 591 455 591 q 325 569 356 591 q 288 508 295 548 l 66 508 q 169 693 83 632 q 413 755 255 755 q 579 731 511 755 q 684 659 646 707 q 722 576 711 624 q 733 423 733 529 l 733 143 q 742 65 733 93 q 770 27 751 36 l 770 0 m 504 346 q 406 314 476 328 q 354 302 372 307 q 293 271 311 290 q 275 220 275 252 q 299 157 275 181 q 364 133 323 133 q 464 168 425 133 q 504 261 504 204 l 504 346 "},"0":{"x_min":39,"x_max":782,"ha":819,"o":"m 287 479 q 315 228 287 303 q 409 154 344 154 q 504 229 475 154 q 534 479 534 305 q 504 727 534 652 q 409 803 475 803 q 315 731 344 803 q 287 493 287 659 l 287 479 m 39 479 q 131 858 39 732 q 409 985 224 985 q 689 858 596 985 q 782 479 782 732 q 689 100 782 226 q 409 -26 596 -26 q 131 100 224 -26 q 39 479 39 226 "},"":{"x_min":77,"x_max":1021,"ha":1097,"o":"m 567 824 q 566 834 566 828 q 565 849 565 839 q 630 1005 565 934 q 790 1094 694 1077 q 791 1079 791 1087 q 791 1052 791 1070 q 721 893 791 963 q 583 823 651 823 l 578 823 q 573 824 576 823 q 567 824 570 824 m 1021 273 q 881 40 943 105 q 743 -24 820 -24 q 654 -1 709 -24 q 571 20 599 20 q 482 -1 540 20 q 396 -24 424 -24 q 309 5 353 -24 q 221 95 265 35 q 114 295 152 190 q 77 499 77 401 q 161 741 77 648 q 380 835 246 835 q 485 811 426 835 q 570 788 544 788 q 652 812 593 788 q 755 836 711 836 q 890 809 830 836 q 999 725 949 782 q 896 626 930 680 q 863 502 863 571 q 903 366 863 425 q 1021 273 944 307 "},"”":{"x_min":61.046875,"x_max":672,"ha":733,"o":"m 421 758 l 421 999 l 672 999 l 672 823 q 608 613 672 688 q 416 526 544 539 l 416 609 q 518 660 485 626 q 551 751 551 695 l 551 758 l 421 758 m 65 758 l 65 999 l 317 999 l 317 823 q 253 613 317 688 q 61 526 189 539 l 61 609 q 163 660 130 626 q 196 751 196 695 l 196 758 l 65 758 "},"ö":{"x_min":43,"x_max":826,"ha":868,"o":"m 291 369 q 328 214 291 268 q 433 160 365 160 q 540 214 502 160 q 578 369 578 269 q 540 523 578 469 q 433 578 502 578 q 327 524 364 578 q 291 369 291 470 m 43 369 q 146 659 43 555 q 433 764 250 764 q 721 659 617 764 q 826 369 826 555 q 721 79 826 184 q 433 -25 617 -25 q 146 79 249 -25 q 43 369 43 183 m 472 860 l 472 1043 l 642 1043 l 642 860 l 472 860 m 226 860 l 226 1043 l 396 1043 l 396 860 l 226 860 "},"Õ":{"x_min":57,"x_max":1060,"ha":1116,"o":"m 317 498 q 379 264 317 345 q 556 183 441 183 q 736 264 673 183 q 799 498 799 345 q 736 732 799 650 q 556 814 673 814 q 379 732 441 814 q 317 498 317 651 m 57 498 q 191 883 57 742 q 556 1025 326 1025 q 924 883 788 1025 q 1060 498 1060 741 q 924 113 1060 255 q 556 -28 788 -28 q 191 113 326 -28 q 57 498 57 254 m 783 1308 q 727 1177 762 1218 q 634 1136 691 1136 q 607 1137 619 1136 q 582 1143 594 1139 l 520 1160 q 493 1166 505 1164 q 474 1169 482 1169 q 438 1156 452 1169 q 414 1117 423 1144 l 333 1117 q 387 1242 351 1201 q 478 1283 423 1283 q 507 1280 492 1283 q 540 1273 522 1278 l 603 1255 q 621 1251 612 1252 q 642 1250 631 1250 q 679 1264 664 1250 q 702 1308 694 1279 l 783 1308 "},"ć":{"x_min":43,"x_max":770.359375,"ha":803,"o":"m 769 273 q 656 54 750 132 q 408 -24 561 -24 q 143 81 243 -24 q 43 360 43 187 q 144 656 43 548 q 421 764 246 764 q 666 687 573 764 q 770 477 758 611 l 526 477 q 489 554 516 528 q 419 580 462 580 q 324 526 357 580 q 292 368 292 472 q 322 216 292 266 q 416 167 353 167 q 492 193 464 167 q 531 273 520 219 l 769 273 m 618 1077 l 397 827 l 293 827 l 423 1077 l 618 1077 "},"þ":{"x_min":87,"x_max":858,"ha":900,"o":"m 327 91 l 327 -296 l 87 -296 l 87 999 l 328 999 l 328 639 q 422 728 369 699 q 546 757 475 757 q 771 650 685 757 q 858 370 858 543 q 771 86 858 196 q 549 -24 684 -24 q 420 5 476 -24 q 327 91 363 35 m 464 564 q 359 512 395 564 q 324 359 324 460 q 362 217 324 267 q 468 167 400 167 q 570 218 533 167 q 608 359 608 270 q 571 511 608 459 q 464 564 534 564 "},"]":{"x_min":22,"x_max":419,"ha":568,"o":"m 22 -292 l 22 -122 l 194 -122 l 194 829 l 22 829 l 22 999 l 419 999 l 419 -292 l 22 -292 "},"8":{"x_min":39,"x_max":781,"ha":819,"o":"m 277 287 q 312 188 277 224 q 410 152 347 152 q 508 188 472 152 q 544 287 544 224 q 507 388 544 351 q 410 425 471 425 q 312 388 348 425 q 277 287 277 351 m 295 699 q 326 616 295 647 q 410 586 357 586 q 494 616 463 586 q 525 699 525 646 q 494 782 525 752 q 410 813 463 813 q 325 782 356 813 q 295 699 295 752 m 200 519 q 100 598 133 548 q 68 719 68 647 q 157 913 68 844 q 410 983 247 983 q 662 913 572 983 q 752 719 752 844 q 719 597 752 646 q 621 519 687 548 q 741 431 702 489 q 781 284 781 373 q 684 55 781 136 q 410 -26 587 -26 q 135 55 232 -26 q 39 284 39 136 q 78 431 39 373 q 200 519 118 488 "},"R":{"x_min":97,"x_max":957,"ha":1019,"o":"m 351 571 l 542 571 q 655 599 619 571 q 692 690 692 628 q 656 772 692 745 q 549 799 621 799 l 351 799 l 351 571 m 97 0 l 97 999 l 575 999 q 855 931 765 999 q 945 721 945 863 q 906 576 945 636 q 787 476 868 516 q 880 408 853 451 q 912 256 907 364 q 916 174 914 225 q 957 34 920 53 l 957 0 l 689 0 q 667 145 670 52 q 662 261 664 237 q 622 346 655 319 q 522 374 589 374 l 351 374 l 351 0 l 97 0 "},"o":{"x_min":43,"x_max":826,"ha":868,"o":"m 291 369 q 328 214 291 268 q 433 160 365 160 q 540 214 502 160 q 578 369 578 269 q 540 523 578 469 q 433 578 502 578 q 327 524 364 578 q 291 369 291 470 m 43 369 q 146 659 43 555 q 433 764 250 764 q 721 659 617 764 q 826 369 826 555 q 721 79 826 184 q 433 -25 617 -25 q 146 79 249 -25 q 43 369 43 183 "},"5":{"x_min":32,"x_max":768,"ha":819,"o":"m 65 419 l 134 960 l 731 960 l 731 769 l 294 769 l 269 581 q 347 629 301 613 q 455 646 394 646 q 683 558 598 646 q 768 322 768 470 q 665 66 768 159 q 383 -26 562 -26 q 131 50 221 -26 q 32 272 42 127 l 267 272 q 302 190 270 219 q 388 161 334 161 q 487 199 453 161 q 522 313 522 238 q 489 428 522 387 q 397 470 456 470 q 327 455 356 470 q 276 410 297 440 l 65 419 "},"õ":{"x_min":43,"x_max":826,"ha":868,"o":"m 291 369 q 328 214 291 268 q 433 160 365 160 q 540 214 502 160 q 578 369 578 269 q 540 523 578 469 q 433 578 502 578 q 327 524 364 578 q 291 369 291 470 m 43 369 q 146 659 43 555 q 433 764 250 764 q 721 659 617 764 q 826 369 826 555 q 721 79 826 184 q 433 -25 617 -25 q 146 79 249 -25 q 43 369 43 183 m 659 1047 q 603 916 638 957 q 510 875 567 875 q 483 876 495 875 q 458 882 470 878 l 396 899 q 369 905 381 903 q 350 908 358 908 q 314 895 328 908 q 290 856 299 883 l 209 856 q 263 981 227 940 q 354 1022 299 1022 q 383 1019 368 1022 q 416 1012 398 1017 l 479 994 q 497 990 488 991 q 518 989 507 989 q 555 1003 540 989 q 578 1047 570 1018 l 659 1047 "},",":{"x_min":78.71875,"x_max":332,"ha":410,"o":"m 82 0 l 82 239 l 332 239 l 332 65 q 269 -144 332 -70 q 78 -232 206 -218 l 78 -149 q 180 -97 147 -131 q 213 -6 213 -63 l 213 0 l 82 0 "},"d":{"x_min":46,"x_max":816,"ha":900,"o":"m 816 999 l 816 0 l 574 0 l 574 96 q 480 7 533 36 q 356 -21 427 -21 q 132 85 218 -21 q 46 365 46 192 q 132 650 46 540 q 353 760 218 760 q 482 730 426 760 q 576 644 539 701 l 576 999 l 816 999 m 296 376 q 332 224 296 277 q 438 172 369 172 q 543 223 507 172 q 578 376 578 275 q 541 520 578 469 q 436 571 504 571 q 333 518 371 571 q 296 376 296 466 "},"\"":{"x_min":51,"x_max":431,"ha":484,"o":"m 282 975 l 431 975 l 431 595 l 282 595 l 282 975 m 51 975 l 200 975 l 200 595 l 51 595 l 51 975 "},"˙":{"x_min":260,"x_max":436,"ha":694,"o":"m 260 857 l 260 1046 l 436 1046 l 436 857 l 260 857 "},"ê":{"x_min":43,"x_max":790,"ha":829,"o":"m 284 447 l 558 447 q 520 558 556 518 q 421 599 484 599 q 326 559 361 599 q 284 447 290 520 m 545 233 l 777 233 q 650 44 745 111 q 413 -22 554 -22 q 142 82 242 -22 q 43 365 43 186 q 143 655 43 548 q 413 762 243 762 q 689 653 589 762 q 790 353 790 544 q 789 326 790 336 q 788 311 789 317 l 291 311 q 324 192 291 233 q 422 152 357 152 q 501 172 470 152 q 545 233 532 192 m 197 827 l 327 1077 l 501 1077 l 632 827 l 528 827 l 415 961 l 301 827 l 197 827 "},"„":{"x_min":61.046875,"x_max":672,"ha":733,"o":"m 421 0 l 421 239 l 672 239 l 672 65 q 608 -144 672 -69 q 416 -232 544 -218 l 416 -149 q 518 -97 485 -131 q 551 -6 551 -63 l 551 0 l 421 0 m 65 0 l 65 239 l 317 239 l 317 65 q 253 -144 317 -69 q 61 -232 189 -218 l 61 -149 q 163 -97 130 -131 q 196 -6 196 -63 l 196 0 l 65 0 "},"Â":{"x_min":0,"x_max":991,"ha":991,"o":"m 382 390 l 601 390 l 490 734 l 382 390 m 359 999 l 638 999 l 991 0 l 716 0 l 655 183 l 321 183 l 265 0 l 0 0 l 359 999 m 287 1088 l 417 1338 l 591 1338 l 722 1088 l 618 1088 l 505 1222 l 391 1088 l 287 1088 "},"Í":{"x_min":104,"x_max":439,"ha":464,"o":"m 104 0 l 104 999 l 359 999 l 359 0 l 104 0 m 439 1338 l 218 1088 l 114 1088 l 244 1338 l 439 1338 "},"´":{"x_min":229,"x_max":554,"ha":694,"o":"m 554 1077 l 333 827 l 229 827 l 359 1077 l 554 1077 "},"Ú":{"x_min":92,"x_max":932,"ha":1023,"o":"m 92 999 l 344 999 l 344 374 q 382 227 344 271 q 512 184 421 184 q 639 227 600 184 q 678 374 678 271 l 678 999 l 932 999 l 932 405 q 907 205 932 279 q 826 79 883 130 q 689 -1 767 25 q 513 -28 611 -28 q 336 -1 414 -28 q 199 79 258 25 q 117 206 142 131 q 92 405 92 281 l 92 999 m 719 1338 l 498 1088 l 394 1088 l 524 1338 l 719 1338 "},"Ý":{"x_min":-13,"x_max":930,"ha":916,"o":"m 332 0 l 332 376 l -13 999 l 273 999 l 457 596 l 640 999 l 930 999 l 581 376 l 581 0 l 332 0 m 665 1338 l 444 1088 l 340 1088 l 470 1338 l 665 1338 "},"Ω":{"x_min":30.546875,"x_max":1084.078125,"ha":1116,"o":"m 858 208 l 1084 208 l 1084 0 l 653 0 l 653 238 q 749 371 715 294 q 783 539 783 449 q 721 734 783 662 q 556 807 660 807 q 391 734 452 807 q 330 537 330 661 q 363 370 330 448 q 461 238 397 292 l 461 0 l 30 0 l 30 208 l 255 208 q 120 363 166 272 q 74 566 74 455 q 206 898 74 772 q 556 1025 339 1025 q 907 899 775 1025 q 1040 566 1040 773 q 993 363 1040 455 q 858 208 947 272 "},"Ö":{"x_min":57,"x_max":1060,"ha":1116,"o":"m 317 498 q 379 264 317 345 q 556 183 441 183 q 736 264 673 183 q 799 498 799 345 q 736 732 799 650 q 556 814 673 814 q 379 732 441 814 q 317 498 317 651 m 57 498 q 191 883 57 742 q 556 1025 326 1025 q 924 883 788 1025 q 1060 498 1060 741 q 924 113 1060 255 q 556 -28 788 -28 q 191 113 326 -28 q 57 498 57 254 m 596 1121 l 596 1304 l 766 1304 l 766 1121 l 596 1121 m 350 1121 l 350 1304 l 520 1304 l 520 1121 l 350 1121 "},"z":{"x_min":26,"x_max":706,"ha":733,"o":"m 26 0 l 26 178 l 392 563 l 49 563 l 49 737 l 693 737 l 693 563 l 329 178 l 706 178 l 706 0 l 26 0 "},"™":{"x_min":128,"x_max":996,"ha":1157,"o":"m 541 993 l 692 993 l 768 787 l 846 993 l 996 993 l 996 619 l 891 619 l 891 883 l 792 619 l 748 619 l 646 883 l 646 619 l 541 619 l 541 993 m 128 993 l 468 993 l 468 907 l 357 907 l 357 619 l 239 619 l 239 907 l 128 907 l 128 993 "},"ã":{"x_min":46,"x_max":770,"ha":810,"o":"m 504 346 q 406 314 476 328 q 354 302 372 307 q 293 271 311 290 q 275 220 275 252 q 299 157 275 181 q 364 133 323 133 q 464 168 425 133 q 504 261 504 204 l 504 346 m 770 0 l 523 0 q 516 36 519 17 q 510 75 513 55 q 402 0 459 24 q 276 -24 345 -24 q 108 34 170 -24 q 46 192 46 93 q 94 341 46 284 q 241 421 142 398 q 379 448 295 434 q 504 508 504 468 l 504 525 q 479 574 504 557 q 407 591 455 591 q 325 569 356 591 q 288 508 295 548 l 66 508 q 169 693 83 632 q 413 755 255 755 q 579 731 511 755 q 684 659 646 707 q 722 576 711 624 q 733 423 733 529 l 733 143 q 742 65 733 93 q 770 27 751 36 l 770 0 m 630 1047 q 574 916 609 957 q 481 875 538 875 q 454 876 466 875 q 429 882 441 878 l 367 899 q 340 905 352 903 q 321 908 329 908 q 285 895 299 908 q 261 856 270 883 l 180 856 q 234 981 198 940 q 325 1022 270 1022 q 354 1019 339 1022 q 387 1012 369 1017 l 450 994 q 468 990 459 991 q 489 989 478 989 q 526 1003 511 989 q 549 1047 541 1018 l 630 1047 "},"æ":{"x_min":46,"x_max":1223,"ha":1264,"o":"m 717 448 l 991 448 q 954 557 990 518 q 855 597 918 597 q 759 558 794 597 q 717 448 724 520 m 503 348 q 405 315 475 330 q 354 303 371 308 q 292 272 310 291 q 275 221 275 253 q 299 157 275 181 q 363 133 323 133 q 464 168 425 133 q 503 262 503 204 l 503 348 m 562 107 q 415 6 482 36 q 276 -24 348 -24 q 107 34 169 -24 q 46 193 46 93 q 95 343 46 285 q 241 424 144 401 q 381 451 295 437 q 503 504 503 471 l 503 527 q 478 578 503 560 q 407 597 453 597 q 326 574 357 597 q 288 511 295 552 l 66 511 q 170 698 84 636 q 411 760 256 760 q 543 742 488 760 q 635 686 598 724 q 726 741 673 723 q 847 760 779 760 q 1123 652 1023 760 q 1223 354 1223 545 q 1222 327 1223 337 q 1221 312 1222 318 l 723 312 q 756 192 723 233 q 855 151 790 151 q 934 171 903 151 q 978 232 965 191 l 1212 232 q 1083 42 1179 109 q 846 -24 988 -24 q 680 8 751 -24 q 562 107 610 41 "},"É":{"x_min":98,"x_max":873,"ha":928,"o":"m 98 0 l 98 999 l 856 999 l 856 794 l 354 794 l 354 618 l 813 618 l 813 418 l 354 418 l 354 204 l 873 204 l 873 0 l 98 0 m 683 1338 l 462 1088 l 358 1088 l 488 1338 l 683 1338 "},"~":{"x_min":121,"x_max":1038,"ha":1157,"o":"m 1038 555 l 1038 383 q 906 313 969 336 q 782 290 843 290 q 721 295 751 290 q 665 309 692 300 q 639 318 656 312 q 380 379 466 379 q 261 353 323 379 q 121 271 199 328 l 121 444 q 261 517 196 493 q 383 542 326 542 q 469 533 426 542 q 584 502 512 525 q 618 491 595 499 q 786 453 726 453 q 904 477 843 453 q 1038 555 964 501 "},"³":{"x_min":25,"x_max":511,"ha":541,"o":"m 25 564 l 176 564 q 200 499 177 521 q 266 478 222 478 q 328 498 304 478 q 352 552 352 519 q 323 611 352 591 q 238 632 295 632 l 225 632 l 225 729 l 236 729 q 314 746 288 729 q 340 801 340 764 q 320 850 340 832 q 267 868 300 868 q 206 848 227 868 q 182 789 185 829 l 35 789 q 98 925 37 877 q 270 974 159 974 q 431 931 371 974 q 491 817 491 889 q 471 748 491 779 q 413 694 452 718 q 486 639 461 675 q 511 554 511 604 q 443 417 511 468 q 259 367 375 367 q 86 418 147 367 q 25 564 25 470 "},"¡":{"x_min":113,"x_max":363,"ha":473,"o":"m 306 673 l 363 277 l 363 0 l 113 0 l 113 277 l 171 673 l 306 673 m 363 999 l 363 758 l 113 758 l 113 999 l 363 999 "},"[":{"x_min":158,"x_max":555,"ha":568,"o":"m 555 -292 l 158 -292 l 158 999 l 555 999 l 555 829 l 383 829 l 383 -122 l 555 -122 l 555 -292 "},"%":{"x_min":39,"x_max":1256,"ha":1295,"o":"m 868 248 q 900 169 868 201 q 980 137 933 137 q 1058 169 1026 137 q 1091 248 1091 201 q 1058 327 1091 294 q 980 360 1026 360 q 900 327 932 360 q 868 248 868 294 m 703 248 q 783 444 703 363 q 979 525 864 525 q 1175 444 1095 525 q 1256 248 1256 363 q 1175 52 1256 133 q 979 -28 1095 -28 q 783 52 864 -28 q 703 248 703 133 m 300 -28 l 872 985 l 995 985 l 424 -28 l 300 -28 m 204 707 q 236 629 204 661 q 316 597 269 597 q 394 629 362 597 q 427 707 427 661 q 394 787 427 754 q 316 820 362 820 q 236 787 268 820 q 204 707 204 754 m 39 708 q 119 904 39 823 q 315 985 200 985 q 511 904 431 985 q 592 708 592 823 q 511 512 592 593 q 315 432 431 432 q 119 512 200 432 q 39 708 39 593 "},"P":{"x_min":98,"x_max":910,"ha":957,"o":"m 355 558 l 524 558 q 626 587 593 558 q 659 679 659 617 q 624 768 659 738 q 521 798 590 798 l 355 798 l 355 558 m 98 0 l 98 999 l 554 999 q 819 918 728 999 q 910 686 910 838 q 820 442 910 527 q 562 357 731 357 l 355 357 l 355 0 l 98 0 "},"∏":{"x_min":98,"x_max":1012,"ha":1116,"o":"m 98 999 l 1012 999 l 1012 -266 l 741 -266 l 741 772 l 369 772 l 369 -266 l 98 -266 l 98 999 "},"_":{"x_min":0,"x_max":694,"ha":694,"o":"m 0 -166 l 694 -166 l 694 -328 l 0 -328 l 0 -166 "},"ñ":{"x_min":85,"x_max":790,"ha":868,"o":"m 85 0 l 85 737 l 320 737 l 320 635 q 413 725 358 696 q 544 755 468 755 q 732 690 674 755 q 790 479 790 625 l 790 0 l 549 0 l 549 370 q 527 536 549 500 q 447 572 505 572 q 354 529 383 572 q 325 394 325 487 l 325 0 l 85 0 m 659 1047 q 603 916 638 957 q 510 875 567 875 q 483 876 495 875 q 458 882 470 878 l 396 899 q 369 905 381 903 q 350 908 358 908 q 314 895 328 908 q 290 856 299 883 l 209 856 q 263 981 227 940 q 354 1022 299 1022 q 383 1019 368 1022 q 416 1012 398 1017 l 479 994 q 497 990 488 991 q 518 989 507 989 q 555 1003 540 989 q 578 1047 570 1018 l 659 1047 "},"‚":{"x_min":61.046875,"x_max":317,"ha":378,"o":"m 65 0 l 65 239 l 317 239 l 317 65 q 253 -144 317 -69 q 61 -232 189 -218 l 61 -149 q 163 -97 130 -131 q 196 -6 196 -63 l 196 0 l 65 0 "},"Æ":{"x_min":-17,"x_max":1329,"ha":1388,"o":"m 579 0 l 579 191 l 304 191 l 237 0 l -17 0 l 391 999 l 1313 999 l 1313 796 l 811 796 l 811 617 l 1269 617 l 1269 418 l 811 418 l 811 204 l 1329 204 l 1329 0 l 579 0 m 374 388 l 579 388 l 579 796 l 528 796 l 374 388 "},"₣":{"x_min":100,"x_max":1407,"ha":1434,"o":"m 100 0 l 100 999 l 817 999 l 817 791 l 354 791 l 354 585 l 755 585 l 755 378 l 354 378 l 354 0 l 100 0 m 932 0 l 932 737 l 1163 737 l 1163 607 q 1260 718 1202 683 q 1407 755 1318 753 l 1407 515 q 1376 518 1391 517 q 1347 520 1360 520 q 1255 503 1291 520 q 1197 452 1218 486 q 1177 386 1183 429 q 1172 247 1172 343 l 1172 0 l 932 0 "},"ğ":{"x_min":45,"x_max":815,"ha":899,"o":"m 86 -62 l 327 -62 q 363 -111 336 -95 q 438 -127 391 -127 q 548 -92 516 -127 q 580 33 580 -57 l 580 111 q 484 22 540 51 q 352 -7 427 -7 q 131 97 217 -7 q 45 370 45 202 q 131 650 45 543 q 355 757 217 757 q 487 728 431 757 q 588 638 544 700 l 588 737 l 815 737 l 815 128 q 804 -64 815 -8 q 770 -158 794 -120 q 644 -261 727 -226 q 445 -297 561 -297 q 190 -239 277 -297 q 86 -62 102 -182 m 295 372 q 332 233 295 284 q 433 183 369 183 q 539 232 501 183 q 577 372 577 282 q 541 519 577 469 q 437 570 506 570 q 331 519 368 570 q 295 372 295 468 m 237 1054 l 326 1054 q 360 983 330 1006 q 450 961 390 961 q 541 983 511 961 q 574 1054 571 1006 l 663 1054 q 603 896 654 946 q 450 846 552 846 q 296 897 348 846 q 237 1054 243 948 "},"ª":{"x_min":35,"x_max":578,"ha":607,"o":"m 378 725 q 299 701 356 712 q 265 694 276 697 q 220 672 233 685 q 207 636 207 659 q 225 591 207 608 q 273 575 243 575 q 349 600 320 575 q 378 665 378 625 l 378 725 m 578 482 l 393 482 q 388 503 390 491 q 383 536 386 515 q 302 482 344 499 q 207 465 259 465 q 81 506 127 465 q 35 616 35 547 q 71 721 35 681 q 182 778 107 761 q 283 796 222 787 q 378 838 378 810 l 378 850 q 360 884 378 873 q 307 896 342 896 q 245 881 267 896 q 217 838 222 867 l 51 838 q 128 968 64 925 q 311 1011 192 1011 q 434 994 383 1011 q 514 944 485 977 q 541 887 533 920 q 550 779 550 854 l 550 583 q 556 527 550 547 q 578 501 563 507 l 578 482 "},"Œ":{"x_min":65,"x_max":1521,"ha":1575,"o":"m 759 69 q 649 -1 710 21 q 508 -25 587 -25 q 188 121 311 -25 q 65 504 65 267 q 189 877 65 733 q 511 1021 314 1021 q 649 999 590 1021 q 759 929 708 977 l 759 999 l 1504 999 l 1504 794 l 1002 794 l 1002 618 l 1460 618 l 1460 418 l 1002 418 l 1002 204 l 1521 204 l 1521 0 l 759 0 l 759 69 m 746 280 l 746 719 q 656 793 700 770 q 559 816 612 816 q 379 735 441 816 q 317 499 317 654 q 379 264 317 346 q 558 182 442 182 q 660 206 613 182 q 746 280 707 231 "},"T":{"x_min":12,"x_max":840,"ha":855,"o":"m 298 0 l 298 796 l 12 796 l 12 999 l 840 999 l 840 796 l 554 796 l 554 0 l 298 0 "},"š":{"x_min":50,"x_max":768,"ha":815,"o":"m 50 225 l 291 225 q 327 151 295 176 q 420 127 359 127 q 500 146 471 127 q 530 199 530 166 q 416 271 530 242 q 318 299 355 287 q 128 394 179 345 q 78 523 78 443 q 163 699 78 635 q 398 764 248 764 q 645 709 558 764 q 743 547 732 655 l 511 547 q 477 602 503 584 q 404 620 450 620 q 337 603 360 620 q 314 556 314 586 q 431 480 314 512 q 475 468 460 473 q 628 420 585 436 q 690 390 671 404 q 749 322 730 361 q 768 232 768 283 q 674 43 768 111 q 413 -24 580 -24 q 154 41 249 -24 q 50 225 59 106 m 190 1077 l 294 1077 l 408 942 l 521 1077 l 625 1077 l 494 827 l 320 827 l 190 1077 "},"Þ":{"x_min":98,"x_max":910,"ha":971,"o":"m 355 638 l 355 399 l 524 399 q 626 428 593 399 q 659 521 659 458 q 624 609 659 580 q 521 638 590 638 l 355 638 m 355 0 l 98 0 l 98 999 l 355 999 l 355 839 l 554 839 q 820 757 731 839 q 910 516 910 676 q 818 282 910 366 q 562 199 727 199 l 355 199 l 355 0 "},"j":{"x_min":-16.671875,"x_max":335,"ha":421,"o":"m 93 804 l 93 999 l 335 999 l 335 804 l 93 804 m 93 737 l 335 737 l 335 57 q 315 -163 335 -107 q 248 -254 296 -220 q 173 -286 218 -275 q 62 -297 127 -297 q 14 -296 30 -297 q -16 -294 -2 -295 l -16 -108 l -9 -108 q 72 -84 51 -108 q 93 20 93 -61 l 93 737 "},"1":{"x_min":129,"x_max":595,"ha":819,"o":"m 353 0 l 353 629 l 129 629 l 129 782 l 148 782 q 335 823 274 782 q 404 958 396 865 l 595 958 l 595 0 l 353 0 "},"›":{"x_min":52,"x_max":308,"ha":354,"o":"m 52 631 l 308 468 l 308 266 l 52 109 l 52 283 l 192 370 l 52 454 l 52 631 "},"<":{"x_min":179,"x_max":978,"ha":1157,"o":"m 978 823 l 978 651 l 398 413 l 978 177 l 978 5 l 179 334 l 179 492 l 978 823 "},"t":{"x_min":10,"x_max":473,"ha":500,"o":"m 10 591 l 10 737 l 109 737 l 109 946 l 350 946 l 350 737 l 473 737 l 473 591 l 350 591 l 350 271 q 368 174 350 198 q 439 151 387 151 q 457 151 451 151 q 470 152 464 151 l 470 -1 q 396 -12 432 -8 q 326 -17 360 -17 q 155 44 201 -17 q 109 305 109 105 l 109 591 l 10 591 "},"¬":{"x_min":172,"x_max":984,"ha":1157,"o":"m 172 587 l 984 587 l 984 247 l 829 247 l 829 433 l 172 433 l 172 587 "},"ù":{"x_min":79,"x_max":784,"ha":868,"o":"m 784 737 l 784 0 l 548 0 l 548 102 q 450 11 505 40 q 324 -18 395 -18 q 140 44 202 -18 q 79 231 79 107 l 79 737 l 320 737 l 320 325 q 342 200 320 234 q 421 166 365 166 q 514 207 485 166 q 543 343 543 249 l 543 737 l 784 737 m 227 1077 l 421 1077 l 552 827 l 447 827 l 227 1077 "},"ï":{"x_min":-3,"x_max":413,"ha":410,"o":"m 85 0 l 85 737 l 325 737 l 325 0 l 85 0 m 243 860 l 243 1043 l 413 1043 l 413 860 l 243 860 m -3 860 l -3 1043 l 167 1043 l 167 860 l -3 860 "},"Ò":{"x_min":57,"x_max":1060,"ha":1116,"o":"m 317 498 q 379 264 317 345 q 556 183 441 183 q 736 264 673 183 q 799 498 799 345 q 736 732 799 650 q 556 814 673 814 q 379 732 441 814 q 317 498 317 651 m 57 498 q 191 883 57 742 q 556 1025 326 1025 q 924 883 788 1025 q 1060 498 1060 741 q 924 113 1060 255 q 556 -28 788 -28 q 191 113 326 -28 q 57 498 57 254 m 351 1338 l 545 1338 l 676 1088 l 571 1088 l 351 1338 "},"&":{"x_min":49,"x_max":975,"ha":993,"o":"m 466 658 q 530 720 510 690 q 551 785 551 751 q 529 843 551 821 q 470 865 507 865 q 410 845 431 865 q 390 788 390 825 q 397 752 390 769 q 422 715 404 736 l 466 658 m 548 221 l 394 419 q 308 349 335 383 q 282 276 282 315 q 318 189 282 225 q 408 154 355 154 q 475 170 441 154 q 548 221 510 187 m 280 568 q 213 676 235 624 q 192 779 192 728 q 269 950 192 882 q 466 1018 346 1018 q 658 955 586 1018 q 730 791 730 893 q 687 643 730 707 q 560 530 645 578 l 680 379 q 708 440 697 406 q 725 519 719 474 l 923 519 q 886 361 917 436 q 802 222 856 286 l 975 0 l 720 0 l 663 75 q 524 -8 599 19 q 364 -37 448 -37 q 138 47 227 -37 q 49 259 49 131 q 104 430 49 356 q 280 568 160 505 "},"":{"x_min":-8,"x_max":823,"ha":819,"o":"m 632 621 l 603 532 l 350 532 q 349 512 349 523 q 349 479 349 501 l 349 443 l 573 443 l 544 354 l 354 354 q 388 201 359 248 q 474 154 417 154 q 556 186 526 154 q 594 282 587 219 l 819 282 q 704 52 794 130 q 465 -26 613 -26 q 225 71 315 -26 q 111 354 134 168 l -8 354 l 22 443 l 103 443 l 103 479 q 103 512 103 501 q 103 532 103 523 l -1 532 l 27 621 l 112 621 q 228 894 136 803 q 480 985 320 985 q 712 908 623 985 q 823 690 801 831 l 594 690 q 557 775 585 747 q 480 803 529 803 q 394 758 425 803 q 355 621 363 713 l 632 621 "},"˝":{"x_min":191,"x_max":665,"ha":694,"o":"m 387 827 l 492 1077 l 665 1077 l 467 827 l 387 827 m 269 1077 l 437 1077 l 265 827 l 191 827 l 269 1077 "},"I":{"x_min":104,"x_max":359,"ha":464,"o":"m 104 0 l 104 999 l 359 999 l 359 0 l 104 0 "},"G":{"x_min":56,"x_max":1010,"ha":1097,"o":"m 849 0 l 829 129 q 695 12 773 50 q 514 -26 617 -26 q 334 9 417 -26 q 189 112 252 44 q 89 279 123 183 q 56 487 56 374 q 195 880 56 732 q 568 1028 335 1028 q 858 939 744 1028 q 1003 693 972 851 l 758 693 q 683 790 733 757 q 561 823 633 823 q 383 733 451 823 q 316 497 316 644 q 382 266 316 352 q 561 181 449 181 q 709 226 650 181 q 782 353 767 271 l 559 353 l 559 545 l 1010 545 l 1010 0 l 849 0 "},"`":{"x_min":140,"x_max":465,"ha":694,"o":"m 140 1077 l 334 1077 l 465 827 l 360 827 l 140 1077 "},"·":{"x_min":79,"x_max":330,"ha":410,"o":"m 79 479 q 114 569 79 532 q 203 606 150 606 q 293 569 256 606 q 330 479 330 532 q 293 389 330 426 q 203 353 256 353 q 114 389 150 353 q 79 479 79 426 "},"¿":{"x_min":47,"x_max":795,"ha":829,"o":"m 543 996 l 543 757 l 291 757 l 291 996 l 543 996 m 531 678 l 531 672 q 508 544 531 603 q 443 452 484 486 q 401 417 428 439 q 288 268 288 327 q 324 193 288 221 q 421 166 360 166 q 520 202 485 166 q 555 306 555 238 l 555 315 l 795 315 q 694 62 788 149 q 424 -25 599 -25 q 150 54 253 -25 q 47 261 47 133 q 70 379 47 327 q 145 473 94 430 q 177 501 156 483 q 300 678 297 602 l 531 678 "},"ý":{"x_min":-11,"x_max":786,"ha":781,"o":"m 491 -82 q 428 -225 454 -185 q 366 -280 401 -265 q 304 -296 341 -291 q 173 -301 267 -301 l 110 -301 l 110 -110 l 156 -110 q 248 -93 223 -110 q 273 -34 273 -76 q 240 78 273 -6 l 237 84 l -11 737 l 249 737 l 387 234 l 529 737 l 786 737 l 491 -82 m 597 1077 l 376 827 l 272 827 l 402 1077 l 597 1077 "},"º":{"x_min":32,"x_max":619,"ha":652,"o":"m 219 741 q 246 632 219 670 q 324 595 273 595 q 404 633 376 595 q 433 741 433 671 q 404 848 433 810 q 324 887 376 887 q 246 849 273 887 q 219 741 219 811 m 32 740 q 109 943 32 870 q 324 1017 187 1017 q 541 943 463 1017 q 619 740 619 870 q 541 537 619 610 q 324 464 463 464 q 109 537 187 464 q 32 740 32 610 "},"∞":{"x_min":132,"x_max":1026,"ha":1157,"o":"m 648 381 q 717 312 677 335 q 807 289 757 289 q 906 323 868 289 q 945 411 945 358 q 910 498 945 463 q 823 532 875 532 q 734 498 774 532 q 648 381 693 463 m 509 446 q 441 514 480 491 q 350 537 401 537 q 251 503 289 537 q 213 415 213 469 q 247 329 213 363 q 334 295 282 295 q 424 330 382 295 q 509 446 465 366 m 580 300 q 480 169 534 212 q 360 127 426 127 q 199 209 266 127 q 132 413 132 291 q 191 619 132 540 q 345 699 250 699 q 458 660 406 699 q 577 525 510 622 q 679 657 625 614 q 797 700 732 700 q 959 618 892 700 q 1026 414 1026 536 q 966 206 1026 286 q 812 127 907 127 q 699 164 750 127 q 580 300 648 201 "},";":{"x_min":93.6875,"x_max":349,"ha":441,"o":"m 97 466 l 97 705 l 349 705 l 349 466 l 97 466 m 97 0 l 97 239 l 349 239 l 349 65 q 285 -144 349 -69 q 93 -232 221 -218 l 93 -149 q 197 -96 164 -130 q 230 -6 230 -61 l 230 0 l 97 0 "},"6":{"x_min":46,"x_max":776,"ha":819,"o":"m 421 148 q 513 189 479 148 q 547 306 547 231 q 513 421 547 380 q 421 462 480 462 q 326 421 359 462 q 293 305 293 380 q 326 189 293 230 q 421 148 360 148 m 755 727 l 537 727 q 498 791 524 770 q 432 812 473 812 q 331 751 368 812 q 286 573 294 691 q 372 624 327 607 q 467 641 418 641 q 693 556 610 641 q 776 324 776 471 q 681 64 776 159 q 422 -31 586 -31 q 143 98 241 -31 q 46 467 46 227 q 151 850 46 714 q 448 986 256 986 q 662 916 580 986 q 755 727 744 846 "},"n":{"x_min":85,"x_max":790,"ha":868,"o":"m 85 0 l 85 737 l 320 737 l 320 635 q 413 725 358 696 q 544 755 468 755 q 732 690 674 755 q 790 479 790 625 l 790 0 l 549 0 l 549 370 q 527 536 549 500 q 447 572 505 572 q 354 529 383 572 q 325 394 325 487 l 325 0 l 85 0 "},"¤":{"x_min":-8,"x_max":823,"ha":819,"o":"m 632 621 l 603 532 l 350 532 q 349 512 349 523 q 349 479 349 501 l 349 443 l 573 443 l 544 354 l 354 354 q 388 201 359 248 q 474 154 417 154 q 556 186 526 154 q 594 282 587 219 l 819 282 q 704 52 794 130 q 465 -26 613 -26 q 225 71 315 -26 q 111 354 134 168 l -8 354 l 22 443 l 103 443 l 103 479 q 103 512 103 501 q 103 532 103 523 l -1 532 l 27 621 l 112 621 q 228 894 136 803 q 480 985 320 985 q 712 908 623 985 q 823 690 801 831 l 594 690 q 557 775 585 747 q 480 803 529 803 q 394 758 425 803 q 355 621 363 713 l 632 621 "},"∂":{"x_min":40,"x_max":715,"ha":755,"o":"m 519 463 q 540 603 533 540 q 548 705 548 666 q 528 805 548 764 q 481 847 508 847 q 392 783 458 847 q 270 720 326 720 q 216 743 237 720 q 194 800 194 766 q 257 885 194 847 q 406 924 320 924 q 631 814 548 924 q 715 515 715 705 q 604 132 715 282 q 321 -17 494 -17 q 119 61 198 -17 q 40 265 40 140 q 120 492 40 402 q 323 583 201 583 q 438 554 391 583 q 519 463 485 525 m 473 360 q 448 480 473 438 q 377 522 423 522 q 268 429 312 522 q 225 194 225 337 q 249 75 225 116 q 321 35 274 35 q 430 126 387 35 q 473 360 473 218 "},"p":{"x_min":87,"x_max":858,"ha":900,"o":"m 87 -296 l 87 737 l 328 737 l 328 639 q 422 728 369 699 q 546 757 475 757 q 771 650 685 757 q 858 370 858 543 q 771 86 858 196 q 549 -24 684 -24 q 420 5 476 -24 q 327 91 363 35 l 327 -296 l 87 -296 m 608 359 q 571 511 608 459 q 464 564 534 564 q 359 512 395 564 q 324 359 324 460 q 362 217 324 267 q 468 167 400 167 q 571 218 534 167 q 608 359 608 270 "},"‡":{"x_min":31,"x_max":664,"ha":694,"o":"m 249 -147 l 249 97 l 31 97 l 31 252 l 249 252 l 249 600 l 31 600 l 31 754 l 249 754 l 249 999 l 444 999 l 444 754 l 664 754 l 664 600 l 444 600 l 444 252 l 664 252 l 664 97 l 444 97 l 444 -147 l 249 -147 "},"√":{"x_min":52,"x_max":930,"ha":926,"o":"m 784 1163 l 930 1163 l 930 1061 l 864 1061 l 464 -28 l 383 -28 l 175 545 l 77 508 l 52 595 l 296 682 l 447 251 l 784 1163 "},"S":{"x_min":51,"x_max":895,"ha":947,"o":"m 51 331 l 297 331 q 347 202 299 245 q 485 160 394 160 q 606 185 563 160 q 649 258 649 211 q 638 300 649 281 q 610 328 628 318 q 473 375 582 343 q 290 436 365 407 q 126 549 182 479 q 71 713 71 620 q 178 941 71 857 q 469 1026 286 1026 q 756 937 650 1026 q 862 697 862 848 l 621 697 q 571 799 612 766 q 453 833 530 833 q 352 807 391 833 q 314 742 314 782 q 498 617 314 676 q 549 601 531 606 l 559 597 q 796 498 749 536 q 869 405 844 458 q 895 287 895 352 q 780 55 895 138 q 460 -28 666 -28 q 164 61 265 -28 q 51 331 62 150 "},"/":{"x_min":1,"x_max":458,"ha":460,"o":"m 110 -129 l 1 -129 l 346 1025 l 458 1025 l 110 -129 "},"y":{"x_min":-11,"x_max":786,"ha":781,"o":"m 491 -82 q 428 -225 454 -185 q 366 -280 401 -265 q 304 -296 341 -291 q 173 -301 267 -301 l 110 -301 l 110 -110 l 156 -110 q 248 -93 223 -110 q 273 -34 273 -76 q 240 78 273 -6 l 237 84 l -11 737 l 249 737 l 387 234 l 529 737 l 786 737 l 491 -82 "},"≈":{"x_min":121,"x_max":1038,"ha":1157,"o":"m 1038 408 l 1038 236 q 905 165 966 187 q 782 143 843 143 q 590 187 721 143 q 380 232 459 232 q 263 206 325 232 q 121 124 202 181 l 121 297 q 262 371 196 347 q 395 395 329 395 q 601 350 473 395 q 786 306 730 306 q 901 329 842 306 q 1038 408 960 353 m 1038 702 l 1038 530 q 904 460 965 482 q 783 439 843 439 q 591 482 721 439 q 380 526 460 526 q 264 501 323 526 q 121 419 204 477 l 121 592 q 262 665 196 642 q 395 689 328 689 q 601 644 473 689 q 786 600 730 600 q 902 624 842 600 q 1038 702 961 648 "},"g":{"x_min":45,"x_max":815,"ha":899,"o":"m 86 -62 l 327 -62 q 363 -111 336 -95 q 438 -127 391 -127 q 548 -92 516 -127 q 580 33 580 -57 l 580 111 q 484 22 540 51 q 352 -7 427 -7 q 131 97 217 -7 q 45 370 45 202 q 131 650 45 543 q 355 757 217 757 q 487 728 431 757 q 588 638 544 700 l 588 737 l 815 737 l 815 128 q 804 -64 815 -8 q 770 -158 794 -120 q 644 -261 727 -226 q 445 -297 561 -297 q 190 -239 277 -297 q 86 -62 102 -182 m 295 372 q 332 233 295 284 q 433 183 369 183 q 539 232 501 183 q 577 372 577 282 q 541 519 577 469 q 437 570 506 570 q 331 519 368 570 q 295 372 295 468 "},"²":{"x_min":26.59375,"x_max":504,"ha":541,"o":"m 26 384 q 62 506 32 454 q 160 605 93 558 q 220 644 178 618 q 282 685 262 669 q 330 733 314 708 q 346 784 346 758 q 325 842 346 821 q 266 864 304 864 q 203 836 224 864 q 182 755 182 808 l 33 755 q 97 914 33 854 q 267 975 161 975 q 438 923 373 975 q 504 788 504 872 q 483 705 504 742 q 413 625 463 667 q 328 565 389 603 q 241 499 267 526 l 498 499 l 498 383 l 26 384 "},"ë":{"x_min":43,"x_max":790,"ha":829,"o":"m 284 447 l 558 447 q 520 558 556 518 q 421 599 484 599 q 326 559 361 599 q 284 447 290 520 m 545 233 l 777 233 q 650 44 745 111 q 413 -22 554 -22 q 142 82 242 -22 q 43 365 43 186 q 143 655 43 548 q 413 762 243 762 q 689 653 589 762 q 790 353 790 544 q 789 326 790 336 q 788 311 789 317 l 291 311 q 324 192 291 233 q 422 152 357 152 q 501 172 470 152 q 545 233 532 192 m 453 860 l 453 1043 l 623 1043 l 623 860 l 453 860 m 207 860 l 207 1043 l 377 1043 l 377 860 l 207 860 "},"–":{"x_min":0,"x_max":694,"ha":694,"o":"m 0 286 l 0 451 l 694 451 l 694 286 l 0 286 "},"ƒ":{"x_min":-29,"x_max":743,"ha":819,"o":"m -29 -266 l 4 -110 q 37 -118 22 -115 q 67 -121 53 -121 q 173 72 133 -121 l 174 79 l 263 505 l 116 505 l 116 662 l 299 662 q 401 944 334 867 q 604 1022 468 1022 q 675 1016 640 1022 q 743 1000 710 1011 l 706 837 q 666 847 679 845 q 644 850 654 850 q 583 815 604 850 q 544 662 563 781 l 698 662 l 698 505 l 509 505 l 419 91 q 367 -115 387 -60 q 322 -204 347 -170 q 235 -269 288 -247 q 112 -292 182 -292 q 36 -285 71 -292 q -29 -266 1 -279 "},"J":{"x_min":28,"x_max":721,"ha":814,"o":"m 29 389 l 267 389 l 267 322 q 291 212 267 245 q 370 179 315 179 q 448 217 426 179 q 471 369 471 256 l 471 999 l 721 999 l 721 378 q 638 67 721 160 q 368 -25 556 -25 q 111 66 195 -25 q 28 347 28 158 q 28 368 28 354 q 29 389 29 382 "},"Ã":{"x_min":0,"x_max":991,"ha":991,"o":"m 382 390 l 601 390 l 490 734 l 382 390 m 359 999 l 638 999 l 991 0 l 716 0 l 655 183 l 321 183 l 265 0 l 0 0 l 359 999 m 730 1308 q 674 1177 709 1218 q 581 1136 638 1136 q 554 1137 566 1136 q 529 1143 541 1139 l 467 1160 q 440 1166 452 1164 q 421 1169 429 1169 q 385 1156 399 1169 q 361 1117 370 1144 l 280 1117 q 334 1242 298 1201 q 425 1283 370 1283 q 454 1280 439 1283 q 487 1273 469 1278 l 550 1255 q 568 1251 559 1252 q 589 1250 578 1250 q 626 1264 611 1250 q 649 1308 641 1279 l 730 1308 "},"©":{"x_min":72,"x_max":1085,"ha":1157,"o":"m 828 604 l 683 604 q 651 674 679 649 q 578 700 624 700 q 490 647 522 700 q 459 500 459 595 q 491 356 459 405 q 585 308 523 308 q 657 335 630 308 q 688 413 683 363 l 834 413 q 761 257 829 316 q 582 198 692 198 q 378 277 453 198 q 303 495 303 357 q 378 719 303 636 q 581 802 453 802 q 755 747 687 802 q 828 604 823 693 m 579 914 q 419 883 493 914 q 287 792 345 852 q 195 656 227 732 q 164 498 164 580 q 195 342 164 418 q 287 207 227 267 q 421 117 346 148 q 579 86 497 86 q 737 117 661 86 q 874 209 814 149 q 963 339 933 266 q 993 498 993 413 q 962 658 993 583 q 873 791 931 733 q 738 882 813 851 q 579 914 663 914 m 578 1007 q 774 969 682 1007 q 939 858 866 931 q 1048 695 1011 786 q 1085 499 1085 604 q 1048 305 1085 395 q 940 144 1011 214 q 772 32 866 71 q 578 -7 679 -7 q 385 31 477 -7 q 221 142 293 70 q 110 306 148 215 q 72 499 72 397 q 111 692 72 600 q 222 859 150 785 q 384 969 293 931 q 578 1007 474 1007 "},"˘":{"x_min":134,"x_max":560,"ha":694,"o":"m 134 1054 l 223 1054 q 257 983 227 1006 q 347 961 287 961 q 438 983 408 961 q 471 1054 468 1006 l 560 1054 q 500 896 551 946 q 347 846 449 846 q 193 897 245 846 q 134 1054 140 948 "},"≥":{"x_min":174,"x_max":985,"ha":1157,"o":"m 174 144 l 985 144 l 985 -11 l 174 -11 l 174 144 m 175 852 l 983 595 l 983 459 l 175 202 l 175 364 l 701 527 l 175 689 l 175 852 "},"D":{"x_min":98,"x_max":983,"ha":1040,"o":"m 355 210 l 493 210 q 667 279 612 210 q 723 498 723 349 q 667 717 723 648 q 493 787 612 787 l 355 787 l 355 210 m 98 0 l 98 999 l 524 999 q 864 869 746 999 q 983 498 983 740 q 860 124 983 248 q 491 0 738 0 l 98 0 "},"ÿ":{"x_min":-11,"x_max":786,"ha":781,"o":"m 491 -82 q 428 -225 454 -185 q 366 -280 401 -265 q 304 -296 341 -291 q 173 -301 267 -301 l 110 -301 l 110 -110 l 156 -110 q 248 -93 223 -110 q 273 -34 273 -76 q 240 78 273 -6 l 237 84 l -11 737 l 249 737 l 387 234 l 529 737 l 786 737 l 491 -82 m 428 860 l 428 1043 l 598 1043 l 598 860 l 428 860 m 182 860 l 182 1043 l 352 1043 l 352 860 l 182 860 "},"ł":{"x_min":-38.65625,"x_max":460.53125,"ha":423,"o":"m 90 0 l 90 354 l 34 316 l -38 422 l 90 512 l 90 999 l 331 999 l 331 662 l 386 701 l 460 596 l 331 505 l 331 0 l 90 0 "},"Ł":{"x_min":-51.546875,"x_max":846,"ha":855,"o":"m 106 0 l 106 345 l 33 295 l -51 416 l 106 527 l 106 999 l 364 999 l 364 677 l 592 838 l 679 716 l 364 496 l 364 216 l 846 216 l 846 0 l 106 0 "},"$":{"x_min":37.96875,"x_max":777,"ha":819,"o":"m 370 617 l 370 800 q 302 775 326 797 q 278 715 278 753 q 298 660 278 682 q 370 617 319 637 m 455 154 q 523 184 498 158 q 549 248 549 209 q 526 315 549 288 q 455 363 503 343 l 455 154 m 370 -157 l 370 -24 q 123 59 206 -19 q 37 295 40 139 l 255 295 q 283 191 257 224 q 370 154 310 158 l 370 393 q 133 515 207 442 q 60 697 60 587 q 142 893 60 819 q 370 974 224 966 l 370 1053 l 455 1053 l 455 974 q 678 898 598 971 q 760 694 758 825 l 543 694 q 521 771 543 744 q 455 800 498 797 l 455 586 q 704 450 631 524 q 777 259 777 376 q 689 63 777 141 q 455 -24 602 -13 l 455 -157 l 370 -157 "},"w":{"x_min":4,"x_max":1136,"ha":1141,"o":"m 223 0 l 4 737 l 250 737 l 355 230 l 444 737 l 692 737 l 784 230 l 890 737 l 1136 737 l 918 0 l 669 0 l 571 486 l 467 0 l 223 0 "},"\\":{"x_min":1,"x_max":458,"ha":460,"o":"m 458 -129 l 348 -129 l 1 1025 l 112 1025 l 458 -129 "},"∫":{"x_min":35,"x_max":814,"ha":847,"o":"m 245 -168 q 326 284 312 -168 q 329 388 328 352 q 417 899 340 743 q 654 1055 494 1055 q 769 1019 725 1055 q 814 926 814 983 q 786 855 814 882 q 714 829 758 829 q 648 855 670 829 q 626 931 626 881 q 621 964 626 957 q 604 972 616 972 q 520 519 535 972 q 518 458 518 479 q 497 137 510 235 q 458 -27 484 40 q 350 -196 416 -140 q 194 -253 284 -253 q 78 -217 122 -253 q 35 -123 35 -182 q 63 -52 35 -79 q 139 -26 91 -26 q 201 -50 179 -26 q 224 -120 224 -74 q 222 -136 224 -128 q 222 -138 222 -138 q 228 -161 222 -155 q 245 -168 233 -168 "},"Ì":{"x_min":25,"x_max":359,"ha":464,"o":"m 104 0 l 104 999 l 359 999 l 359 0 l 104 0 m 25 1338 l 219 1338 l 350 1088 l 245 1088 l 25 1338 "},"Ç":{"x_min":57,"x_max":987.71875,"ha":1035,"o":"m 985 350 q 843 71 959 170 q 544 -28 727 -28 q 191 115 325 -28 q 57 491 57 258 q 193 878 57 734 q 559 1023 330 1023 q 856 927 741 1023 q 987 667 971 832 l 748 667 q 681 774 730 738 q 551 811 631 811 q 381 726 444 811 q 319 494 319 641 q 378 267 319 348 q 544 186 437 186 q 683 228 631 186 q 748 350 735 270 l 985 350 m 366 -297 l 366 -204 q 467 -227 420 -219 q 549 -235 514 -235 q 593 -223 578 -235 q 608 -185 608 -211 q 588 -153 608 -164 q 527 -143 569 -143 q 504 -143 513 -143 q 490 -144 496 -143 l 490 0 l 567 0 l 567 -57 l 579 -57 q 695 -90 655 -57 q 736 -187 736 -124 q 691 -292 736 -255 q 563 -329 646 -329 q 475 -321 524 -329 q 366 -297 426 -313 "},"C":{"x_min":57,"x_max":987.71875,"ha":1035,"o":"m 985 350 q 843 71 959 170 q 544 -28 727 -28 q 191 115 325 -28 q 57 491 57 258 q 193 878 57 734 q 559 1023 330 1023 q 856 927 741 1023 q 987 667 971 832 l 748 667 q 681 774 730 738 q 551 811 631 811 q 381 726 444 811 q 319 494 319 641 q 378 267 319 348 q 544 186 437 186 q 683 228 631 186 q 748 350 735 270 l 985 350 "},"!":{"x_min":111,"x_max":363.03125,"ha":473,"o":"m 168 324 l 111 721 l 111 999 l 361 999 l 361 721 l 302 324 l 168 324 m 112 0 l 112 239 l 363 239 l 363 0 l 112 0 "},"ç":{"x_min":43,"x_max":770.359375,"ha":803,"o":"m 769 273 q 656 54 750 132 q 408 -24 561 -24 q 143 81 243 -24 q 43 360 43 187 q 144 656 43 548 q 421 764 246 764 q 666 687 573 764 q 770 477 758 611 l 526 477 q 489 554 516 528 q 419 580 462 580 q 324 526 357 580 q 292 368 292 472 q 322 216 292 266 q 416 167 353 167 q 492 193 464 167 q 531 273 520 219 l 769 273 m 248 -297 l 248 -204 q 349 -227 302 -219 q 431 -235 396 -235 q 475 -223 460 -235 q 490 -185 490 -211 q 470 -153 490 -164 q 409 -143 451 -143 q 386 -143 395 -143 q 372 -144 378 -143 l 372 0 l 449 0 l 449 -57 l 461 -57 q 577 -90 537 -57 q 618 -187 618 -124 q 573 -292 618 -255 q 445 -329 528 -329 q 357 -321 406 -329 q 248 -297 308 -313 "},"È":{"x_min":98,"x_max":873,"ha":928,"o":"m 98 0 l 98 999 l 856 999 l 856 794 l 354 794 l 354 618 l 813 618 l 813 418 l 354 418 l 354 204 l 873 204 l 873 0 l 98 0 m 269 1338 l 463 1338 l 594 1088 l 489 1088 l 269 1338 "},"X":{"x_min":-10,"x_max":915,"ha":905,"o":"m -10 0 l 312 512 l 8 999 l 299 999 l 452 731 l 605 999 l 896 999 l 589 512 l 915 0 l 620 0 l 452 290 l 283 0 l -10 0 "},"ô":{"x_min":43,"x_max":826,"ha":868,"o":"m 291 369 q 328 214 291 268 q 433 160 365 160 q 540 214 502 160 q 578 369 578 269 q 540 523 578 469 q 433 578 502 578 q 327 524 364 578 q 291 369 291 470 m 43 369 q 146 659 43 555 q 433 764 250 764 q 721 659 617 764 q 826 369 826 555 q 721 79 826 184 q 433 -25 617 -25 q 146 79 249 -25 q 43 369 43 183 m 216 827 l 346 1077 l 520 1077 l 651 827 l 547 827 l 434 961 l 320 827 l 216 827 "},"đ":{"x_min":46,"x_max":906.203125,"ha":900,"o":"m 816 999 l 816 929 l 906 929 l 906 806 l 816 806 l 816 -1 l 574 -1 l 574 96 q 480 7 532 35 q 356 -21 427 -21 q 132 86 218 -21 q 46 365 46 193 q 132 650 46 540 q 353 760 218 760 q 482 730 426 760 q 576 644 539 701 l 576 806 l 355 806 l 355 929 l 576 929 l 576 999 l 816 999 m 296 376 q 332 224 296 277 q 438 172 369 172 q 543 223 507 172 q 578 376 578 275 q 541 520 578 469 q 436 571 504 571 q 333 518 371 571 q 296 376 296 466 "},"}":{"x_min":91,"x_max":594,"ha":694,"o":"m 91 1002 q 119 1002 101 1002 q 145 1003 137 1003 q 267 995 218 1003 q 349 970 316 987 q 405 909 388 948 q 422 778 422 870 l 422 606 q 455 477 422 515 q 569 440 488 440 q 581 441 573 440 q 594 442 589 442 l 594 278 q 581 278 589 278 q 569 279 573 279 q 455 242 488 279 q 422 115 422 204 l 422 -57 q 405 -189 422 -150 q 349 -249 388 -228 q 272 -273 318 -265 q 152 -281 225 -281 q 122 -280 142 -281 q 91 -280 101 -280 l 91 -116 q 106 -116 97 -116 q 120 -117 116 -117 q 208 -94 185 -117 q 231 4 231 -70 l 231 168 q 262 303 231 263 q 374 359 293 343 q 261 416 292 376 q 231 553 231 456 l 231 715 q 208 815 231 791 q 122 839 185 839 q 107 838 118 839 q 91 838 97 838 l 91 1002 "},"â":{"x_min":46,"x_max":770,"ha":810,"o":"m 504 346 q 406 314 476 328 q 354 302 372 307 q 293 271 311 290 q 275 220 275 252 q 299 157 275 181 q 364 133 323 133 q 464 168 425 133 q 504 261 504 204 l 504 346 m 770 0 l 523 0 q 516 36 519 17 q 510 75 513 55 q 402 0 459 24 q 276 -24 345 -24 q 108 34 170 -24 q 46 192 46 93 q 94 341 46 284 q 241 421 142 398 q 379 448 295 434 q 504 508 504 468 l 504 525 q 479 574 504 557 q 407 591 455 591 q 325 569 356 591 q 288 508 295 548 l 66 508 q 169 693 83 632 q 413 755 255 755 q 579 731 511 755 q 684 659 646 707 q 722 576 711 624 q 733 423 733 529 l 733 143 q 742 65 733 93 q 770 27 751 36 l 770 0 m 187 827 l 317 1077 l 491 1077 l 622 827 l 518 827 l 405 961 l 291 827 l 187 827 "},"ø":{"x_min":27.953125,"x_max":840.953125,"ha":868,"o":"m 76 -42 l 27 8 l 123 110 q 64 224 84 158 q 45 372 45 289 q 148 660 45 557 q 435 764 252 764 q 573 746 511 764 q 685 690 634 728 l 789 800 l 840 749 l 736 640 q 802 519 781 586 q 824 369 824 451 q 721 79 824 183 q 433 -25 618 -25 q 287 -5 350 -25 q 172 55 223 14 l 76 -42 m 576 456 l 326 204 q 374 165 346 178 q 439 153 402 153 q 547 209 507 153 q 587 364 587 266 q 584 408 587 385 q 576 456 581 431 m 291 281 l 545 529 q 496 571 524 557 q 433 585 467 585 q 321 528 360 585 q 282 364 282 471 q 284 320 282 341 q 291 281 286 300 "},"Ä":{"x_min":0,"x_max":991,"ha":991,"o":"m 382 390 l 601 390 l 490 734 l 382 390 m 359 999 l 638 999 l 991 0 l 716 0 l 655 183 l 321 183 l 265 0 l 0 0 l 359 999 m 543 1121 l 543 1304 l 713 1304 l 713 1121 l 543 1121 m 297 1121 l 297 1304 l 467 1304 l 467 1121 l 297 1121 "},"‰":{"x_min":39,"x_max":1881,"ha":1917,"o":"m 1493 248 q 1525 169 1493 201 q 1604 137 1558 137 q 1683 169 1651 137 q 1716 248 1716 201 q 1683 327 1716 294 q 1604 360 1651 360 q 1525 327 1558 360 q 1493 248 1493 294 m 1328 248 q 1408 444 1328 363 q 1604 525 1489 525 q 1800 444 1719 525 q 1881 248 1881 363 q 1800 52 1881 133 q 1604 -28 1719 -28 q 1408 52 1489 -28 q 1328 248 1328 133 m 867 248 q 899 169 867 201 q 979 137 932 137 q 1057 169 1025 137 q 1090 248 1090 201 q 1057 327 1090 294 q 979 360 1025 360 q 899 327 931 360 q 867 248 867 294 m 702 248 q 782 444 702 363 q 978 525 863 525 q 1174 444 1094 525 q 1255 248 1255 363 q 1174 52 1255 133 q 978 -28 1094 -28 q 782 52 863 -28 q 702 248 702 133 m 300 -28 l 871 985 l 994 985 l 424 -28 l 300 -28 m 204 707 q 236 629 204 661 q 316 597 269 597 q 394 629 362 597 q 427 707 427 661 q 394 787 427 754 q 316 820 362 820 q 236 787 268 820 q 204 707 204 754 m 39 708 q 119 904 39 823 q 315 985 200 985 q 511 904 431 985 q 592 708 592 823 q 511 512 592 593 q 315 432 431 432 q 119 512 200 432 q 39 708 39 593 "},"N":{"x_min":97,"x_max":964,"ha":1063,"o":"m 97 0 l 97 999 l 374 999 l 562 670 q 649 512 608 590 q 727 356 691 433 q 719 569 722 470 q 717 743 717 668 l 717 999 l 964 999 l 964 0 l 688 0 l 492 337 q 416 471 457 397 q 330 632 376 545 q 341 450 338 534 q 345 301 345 366 l 345 0 l 97 0 "},"—":{"x_min":0,"x_max":1389,"ha":1389,"o":"m 0 451 l 1389 451 l 1389 286 l 0 286 l 0 451 "},"2":{"x_min":39.46875,"x_max":763,"ha":819,"o":"m 39 0 q 94 203 46 115 q 240 369 141 290 q 335 436 272 393 q 427 502 398 479 q 499 583 475 542 q 523 667 523 624 q 491 765 523 730 q 403 800 460 800 q 307 754 340 800 q 275 620 275 709 l 50 620 q 147 886 51 787 q 405 986 244 986 q 664 900 565 986 q 763 675 763 814 q 732 535 763 598 q 627 402 701 471 q 496 302 589 366 q 365 193 403 237 l 754 193 l 754 0 l 39 0 "},"ü":{"x_min":79,"x_max":784,"ha":868,"o":"m 784 737 l 784 0 l 548 0 l 548 102 q 450 11 505 40 q 324 -18 395 -18 q 140 44 202 -18 q 79 231 79 107 l 79 737 l 320 737 l 320 325 q 342 200 320 234 q 421 166 365 166 q 514 207 485 166 q 543 343 543 249 l 543 737 l 784 737 m 472 860 l 472 1043 l 642 1043 l 642 860 l 472 860 m 226 860 l 226 1043 l 396 1043 l 396 860 l 226 860 "},"":{"x_min":17,"x_max":825,"ha":907,"o":"m 583 0 l 583 999 l 825 999 l 825 0 l 583 0 m 122 0 l 122 587 l 17 587 l 17 737 l 122 737 q 120 753 121 745 q 120 779 120 762 q 184 954 120 901 q 398 1008 248 1008 q 449 1007 432 1008 q 483 1005 467 1006 l 483 841 q 470 842 477 841 q 450 842 462 842 q 381 824 400 842 q 362 759 362 806 q 363 748 362 755 q 364 737 364 741 l 483 737 l 483 587 l 364 587 l 364 0 l 122 0 "},"Ó":{"x_min":57,"x_max":1060,"ha":1116,"o":"m 317 498 q 379 264 317 345 q 556 183 441 183 q 736 264 673 183 q 799 498 799 345 q 736 732 799 650 q 556 814 673 814 q 379 732 441 814 q 317 498 317 651 m 57 498 q 191 883 57 742 q 556 1025 326 1025 q 924 883 788 1025 q 1060 498 1060 741 q 924 113 1060 255 q 556 -28 788 -28 q 191 113 326 -28 q 57 498 57 254 m 765 1338 l 544 1088 l 440 1088 l 570 1338 l 765 1338 "},"˜":{"x_min":122,"x_max":572,"ha":694,"o":"m 572 1047 q 516 916 551 957 q 423 875 480 875 q 396 876 408 875 q 371 882 383 878 l 309 899 q 282 905 294 903 q 263 908 271 908 q 227 895 241 908 q 203 856 212 883 l 122 856 q 176 981 140 940 q 267 1022 212 1022 q 296 1019 281 1022 q 329 1012 311 1017 l 392 994 q 410 990 401 991 q 431 989 420 989 q 468 1003 453 989 q 491 1047 483 1018 l 572 1047 "},"ˇ":{"x_min":129,"x_max":564,"ha":694,"o":"m 129 1077 l 233 1077 l 347 942 l 460 1077 l 564 1077 l 433 827 l 259 827 l 129 1077 "},"Ÿ":{"x_min":-13,"x_max":930,"ha":916,"o":"m 332 0 l 332 376 l -13 999 l 273 999 l 457 596 l 640 999 l 930 999 l 581 376 l 581 0 l 332 0 m 496 1121 l 496 1304 l 666 1304 l 666 1121 l 496 1121 m 250 1121 l 250 1304 l 420 1304 l 420 1121 l 250 1121 "},"€":{"x_min":-8,"x_max":823,"ha":819,"o":"m 632 621 l 603 532 l 350 532 q 349 512 349 523 q 349 479 349 501 l 349 443 l 573 443 l 544 354 l 354 354 q 388 201 359 248 q 474 154 417 154 q 556 186 526 154 q 594 282 587 219 l 819 282 q 704 52 794 130 q 465 -26 613 -26 q 225 71 315 -26 q 111 354 134 168 l -8 354 l 22 443 l 103 443 l 103 479 q 103 512 103 501 q 103 532 103 523 l -1 532 l 27 621 l 112 621 q 228 894 136 803 q 480 985 320 985 q 712 908 623 985 q 823 690 801 831 l 594 690 q 557 775 585 747 q 480 803 529 803 q 394 758 425 803 q 355 621 363 713 l 632 621 "},"ß":{"x_min":85,"x_max":819,"ha":861,"o":"m 85 0 l 85 567 q 100 777 85 713 q 154 890 116 840 q 272 979 198 948 q 444 1010 346 1010 q 693 938 600 1010 q 786 747 786 866 q 752 624 786 676 q 655 544 719 572 q 777 443 735 511 q 819 277 819 376 q 737 54 819 133 q 505 -24 655 -24 q 465 -22 487 -24 q 414 -16 443 -20 l 414 197 q 426 196 419 196 q 444 196 432 196 q 539 223 507 196 q 571 307 571 251 q 535 389 571 362 q 425 416 499 416 l 414 416 l 414 608 l 418 608 q 510 636 478 608 q 542 720 542 665 q 514 788 542 762 q 441 815 486 815 q 349 771 375 815 q 324 594 324 727 l 324 0 l 85 0 "},"s":{"x_min":50,"x_max":768,"ha":815,"o":"m 50 225 l 291 225 q 327 151 295 176 q 420 127 359 127 q 500 146 471 127 q 530 199 530 166 q 416 271 530 242 q 318 299 355 287 q 128 394 179 345 q 78 523 78 443 q 163 699 78 635 q 398 764 248 764 q 645 709 558 764 q 743 547 732 655 l 511 547 q 477 602 503 584 q 404 620 450 620 q 337 603 360 620 q 314 556 314 586 q 431 480 314 512 q 475 468 460 473 q 628 420 585 436 q 690 390 671 404 q 749 322 730 361 q 768 232 768 283 q 674 43 768 111 q 413 -24 580 -24 q 154 41 249 -24 q 50 225 59 106 "},"?":{"x_min":40,"x_max":789,"ha":829,"o":"m 295 0 l 295 239 l 545 239 l 545 0 l 295 0 m 305 318 l 305 323 q 328 451 305 392 q 392 544 351 510 q 432 577 406 555 q 546 727 546 668 q 510 803 546 775 q 413 831 474 831 q 316 794 350 831 q 282 690 282 758 l 282 682 l 40 682 q 142 934 46 847 q 412 1021 237 1021 q 685 941 582 1021 q 789 734 789 862 q 765 616 789 668 q 690 520 741 564 q 656 491 679 510 q 534 318 538 393 l 305 318 "},"c":{"x_min":43,"x_max":770.359375,"ha":803,"o":"m 769 273 q 656 54 750 132 q 408 -24 561 -24 q 143 81 243 -24 q 43 360 43 187 q 144 656 43 548 q 421 764 246 764 q 666 687 573 764 q 770 477 758 611 l 526 477 q 489 554 516 528 q 419 580 462 580 q 324 526 357 580 q 292 368 292 472 q 322 216 292 266 q 416 167 353 167 q 492 193 464 167 q 531 273 520 219 l 769 273 "},"¶":{"x_min":19,"x_max":675,"ha":694,"o":"m 675 1003 l 675 920 l 603 920 l 603 0 l 485 0 l 485 920 l 383 920 l 383 0 l 265 0 l 265 532 q 86 600 153 536 q 19 766 19 664 q 91 938 19 873 q 283 1003 163 1003 l 675 1003 "},"•":{"x_min":208,"x_max":609,"ha":819,"o":"m 208 516 q 266 657 208 599 q 409 716 325 716 q 550 657 491 716 q 609 516 609 598 q 549 374 609 433 q 407 315 490 315 q 266 373 324 315 q 208 516 208 432 "},"(":{"x_min":118,"x_max":543,"ha":550,"o":"m 543 -290 l 366 -290 q 179 36 240 -122 q 118 354 118 194 q 180 684 118 523 q 368 999 242 845 l 537 999 q 399 681 444 839 q 354 356 354 523 q 400 27 354 187 q 543 -290 447 -132 "},"◊":{"x_min":4,"x_max":682,"ha":686,"o":"m 343 955 l 81 401 l 343 -159 l 604 401 l 343 955 m 343 1121 l 682 401 l 343 -324 l 4 401 l 343 1121 "},"­":{"x_min":65,"x_max":412,"ha":479,"o":"m 65 268 l 65 469 l 412 469 l 412 268 l 65 268 "},":":{"x_min":96,"x_max":346,"ha":441,"o":"m 96 466 l 96 705 l 346 705 l 346 466 l 96 466 m 96 0 l 96 239 l 346 239 l 346 0 l 96 0 "},"Û":{"x_min":92,"x_max":932,"ha":1023,"o":"m 92 999 l 344 999 l 344 374 q 382 227 344 271 q 512 184 421 184 q 639 227 600 184 q 678 374 678 271 l 678 999 l 932 999 l 932 405 q 907 205 932 279 q 826 79 883 130 q 689 -1 767 25 q 513 -28 611 -28 q 336 -1 414 -28 q 199 79 258 25 q 117 206 142 131 q 92 405 92 281 l 92 999 m 294 1088 l 424 1338 l 598 1338 l 729 1088 l 625 1088 l 512 1222 l 398 1088 l 294 1088 "},"V":{"x_min":-17,"x_max":911,"ha":896,"o":"m 327 0 l -17 999 l 254 999 l 395 485 q 406 443 398 472 q 446 288 432 351 q 464 360 453 319 q 494 469 475 402 l 641 999 l 911 999 l 566 0 l 327 0 "}," ":{"x_min":0,"x_max":0,"ha":819},"@":{"x_min":56,"x_max":1335,"ha":1389,"o":"m 787 178 q 701 96 749 122 q 587 71 654 71 q 419 130 476 71 q 363 304 363 189 q 459 578 363 468 q 696 689 555 689 q 787 668 748 689 q 851 605 825 647 l 886 668 l 1026 668 l 922 255 q 922 251 922 253 q 919 232 919 238 q 930 202 919 212 q 962 192 941 192 q 1125 289 1055 192 q 1196 516 1196 387 q 1074 780 1196 678 q 757 883 952 883 q 571 858 656 883 q 415 784 485 833 q 252 597 309 709 q 196 356 196 486 q 333 29 196 151 q 702 -92 471 -92 q 917 -59 814 -92 q 1107 34 1020 -27 l 1172 -57 q 949 -175 1067 -136 q 702 -215 832 -215 q 462 -181 572 -215 q 266 -83 352 -148 q 108 107 160 0 q 56 352 56 215 q 91 569 56 467 q 197 758 127 672 q 441 946 298 882 q 758 1011 584 1011 q 975 979 873 1011 q 1151 890 1077 948 q 1289 725 1244 817 q 1335 518 1335 633 q 1290 310 1335 405 q 1161 147 1246 215 q 1056 89 1114 109 q 937 69 999 69 q 828 96 865 69 q 787 178 791 124 m 812 472 q 778 550 806 523 q 704 578 751 578 q 581 495 634 578 q 528 301 528 413 q 551 214 528 245 q 618 184 575 184 q 718 223 675 184 q 778 330 761 263 l 812 472 "},"¾":{"x_min":24,"x_max":1242,"ha":1264,"o":"m 1030 203 l 1030 415 l 878 203 l 1030 203 m 1028 0 l 1028 108 l 770 108 l 770 211 l 1004 536 l 1177 536 l 1177 206 l 1242 206 l 1242 108 l 1177 108 l 1177 0 l 1028 0 m 285 0 l 860 985 l 984 985 l 408 0 l 285 0 m 24 590 l 170 590 q 191 530 170 551 q 254 510 213 510 q 314 529 291 510 q 338 579 338 548 q 310 635 338 616 q 228 654 283 654 l 213 654 l 213 744 l 225 744 q 300 760 275 744 q 326 811 326 777 q 307 857 326 840 q 256 874 288 874 q 197 856 217 874 q 174 801 177 838 l 34 801 q 95 928 36 883 q 259 973 153 973 q 412 933 355 973 q 470 827 470 893 q 451 763 470 791 q 396 712 433 734 q 464 660 441 693 q 488 581 488 628 q 423 453 488 500 q 247 406 359 406 q 83 453 141 406 q 24 590 25 501 "},"i":{"x_min":85,"x_max":325,"ha":410,"o":"m 85 804 l 85 999 l 325 999 l 325 804 l 85 804 m 85 0 l 85 737 l 325 737 l 325 0 l 85 0 "},"≤":{"x_min":174,"x_max":985,"ha":1157,"o":"m 174 144 l 985 144 l 985 -11 l 174 -11 l 174 144 m 983 852 l 983 689 l 457 527 l 983 364 l 983 202 l 174 459 l 174 595 l 983 852 "},"m":{"x_min":85,"x_max":1209,"ha":1287,"o":"m 85 0 l 85 737 l 316 737 l 316 635 q 407 725 353 696 q 536 755 461 755 q 668 725 616 755 q 748 635 721 696 q 839 725 784 695 q 969 755 894 755 q 1148 689 1087 755 q 1209 494 1209 623 l 1209 0 l 973 0 l 973 420 q 949 538 973 504 q 867 572 925 572 q 781 528 809 572 q 754 394 754 485 l 754 0 l 540 0 l 540 420 q 516 538 540 504 q 434 572 492 572 q 348 528 376 572 q 321 394 321 485 l 321 0 l 85 0 "},"ž":{"x_min":26,"x_max":706,"ha":733,"o":"m 26 0 l 26 178 l 392 563 l 49 563 l 49 737 l 693 737 l 693 563 l 329 178 l 706 178 l 706 0 l 26 0 m 149 1077 l 253 1077 l 367 942 l 480 1077 l 584 1077 l 453 827 l 279 827 l 149 1077 "},"á":{"x_min":46,"x_max":770,"ha":810,"o":"m 504 346 q 406 314 476 328 q 354 302 372 307 q 293 271 311 290 q 275 220 275 252 q 299 157 275 181 q 364 133 323 133 q 464 168 425 133 q 504 261 504 204 l 504 346 m 770 0 l 523 0 q 516 36 519 17 q 510 75 513 55 q 402 0 459 24 q 276 -24 345 -24 q 108 34 170 -24 q 46 192 46 93 q 94 341 46 284 q 241 421 142 398 q 379 448 295 434 q 504 508 504 468 l 504 525 q 479 574 504 557 q 407 591 455 591 q 325 569 356 591 q 288 508 295 548 l 66 508 q 169 693 83 632 q 413 755 255 755 q 579 731 511 755 q 684 659 646 707 q 722 576 711 624 q 733 423 733 529 l 733 143 q 742 65 733 93 q 770 27 751 36 l 770 0 m 612 1077 l 391 827 l 287 827 l 417 1077 l 612 1077 "},"×":{"x_min":182,"x_max":999,"ha":1157,"o":"m 291 823 l 590 524 l 889 823 l 999 713 l 700 413 l 999 114 l 889 5 l 590 304 l 291 5 l 182 114 l 481 413 l 182 713 l 291 823 "},"İ":{"x_min":104,"x_max":359,"ha":464,"o":"m 104 0 l 104 999 l 359 999 l 359 0 l 104 0 m 145 1118 l 145 1307 l 321 1307 l 321 1118 l 145 1118 "},"K":{"x_min":98,"x_max":1022,"ha":1014,"o":"m 98 0 l 98 999 l 350 999 l 350 617 l 705 999 l 1012 999 l 608 579 l 1022 0 l 716 0 l 436 400 l 350 314 l 350 0 l 98 0 "},"7":{"x_min":40,"x_max":770,"ha":819,"o":"m 164 0 q 264 379 174 189 q 525 757 355 569 l 40 757 l 40 958 l 770 958 l 770 766 q 530 400 613 592 q 434 0 446 208 l 164 0 "},"¨":{"x_min":139,"x_max":555,"ha":694,"o":"m 385 860 l 385 1043 l 555 1043 l 555 860 l 385 860 m 139 860 l 139 1043 l 309 1043 l 309 860 l 139 860 "},"Y":{"x_min":-13,"x_max":930,"ha":916,"o":"m 332 0 l 332 376 l -13 999 l 273 999 l 457 596 l 640 999 l 930 999 l 581 376 l 581 0 l 332 0 "},"E":{"x_min":98,"x_max":873,"ha":928,"o":"m 98 0 l 98 999 l 856 999 l 856 794 l 354 794 l 354 618 l 813 618 l 813 418 l 354 418 l 354 204 l 873 204 l 873 0 l 98 0 "},"Ô":{"x_min":57,"x_max":1060,"ha":1116,"o":"m 317 498 q 379 264 317 345 q 556 183 441 183 q 736 264 673 183 q 799 498 799 345 q 736 732 799 650 q 556 814 673 814 q 379 732 441 814 q 317 498 317 651 m 57 498 q 191 883 57 742 q 556 1025 326 1025 q 924 883 788 1025 q 1060 498 1060 741 q 924 113 1060 255 q 556 -28 788 -28 q 191 113 326 -28 q 57 498 57 254 m 340 1088 l 470 1338 l 644 1338 l 775 1088 l 671 1088 l 558 1222 l 444 1088 l 340 1088 "},"Ï":{"x_min":24,"x_max":440,"ha":464,"o":"m 104 0 l 104 999 l 359 999 l 359 0 l 104 0 m 270 1121 l 270 1304 l 440 1304 l 440 1121 l 270 1121 m 24 1121 l 24 1304 l 194 1304 l 194 1121 l 24 1121 "},"‹":{"x_min":47,"x_max":303,"ha":354,"o":"m 303 109 l 47 269 l 47 472 l 303 631 l 303 456 l 162 370 l 303 283 l 303 109 "},"±":{"x_min":172,"x_max":985,"ha":1157,"o":"m 172 145 l 985 145 l 985 -12 l 172 -12 l 172 145 m 498 841 l 659 841 l 659 625 l 985 625 l 985 468 l 659 468 l 659 252 l 498 252 l 498 468 l 172 468 l 172 625 l 498 625 l 498 841 "},"ì":{"x_min":-2,"x_max":325,"ha":410,"o":"m 85 0 l 85 737 l 325 737 l 325 0 l 85 0 m -2 1077 l 192 1077 l 323 827 l 218 827 l -2 1077 "},"|":{"x_min":267,"x_max":430,"ha":694,"o":"m 267 1061 l 430 1061 l 430 -328 l 267 -328 l 267 1061 "},"§":{"x_min":14,"x_max":678,"ha":694,"o":"m 430 323 q 480 358 463 337 q 498 404 498 379 q 382 497 498 447 q 260 554 306 529 q 211 516 228 538 q 194 470 194 495 q 333 366 194 425 q 430 323 394 340 m 58 105 l 252 105 q 281 27 254 55 q 355 0 309 0 q 415 20 392 0 q 439 70 439 40 q 419 114 439 96 q 328 159 400 132 l 219 202 q 64 303 115 244 q 14 443 14 362 q 47 553 14 505 q 143 629 81 601 q 83 704 104 662 q 63 793 63 746 q 137 964 63 903 q 347 1025 212 1025 q 550 960 475 1025 q 630 781 625 895 l 432 781 q 407 852 432 825 q 343 879 383 879 q 284 861 307 879 q 262 815 262 843 q 285 765 262 787 q 370 717 309 742 l 475 671 q 631 567 585 623 q 678 429 678 511 q 644 308 678 358 q 553 247 610 259 q 617 172 596 214 q 639 80 639 131 q 564 -85 639 -25 q 359 -146 490 -146 q 137 -81 214 -146 q 58 105 60 -17 "},"q":{"x_min":43,"x_max":814,"ha":900,"o":"m 814 -296 l 573 -296 l 573 91 q 479 5 536 35 q 350 -24 423 -24 q 129 85 215 -24 q 43 370 43 195 q 128 650 43 543 q 353 757 214 757 q 477 728 424 757 q 571 639 530 699 l 571 737 l 814 737 l 814 -296 m 292 359 q 329 218 292 270 q 432 167 367 167 q 538 217 501 167 q 575 359 575 267 q 540 512 575 460 q 435 564 504 564 q 328 511 365 564 q 292 359 292 459 "},"b":{"x_min":87,"x_max":858,"ha":900,"o":"m 608 376 q 570 518 608 466 q 468 571 533 571 q 362 519 400 571 q 324 376 324 468 q 359 223 324 275 q 464 172 395 172 q 571 224 534 172 q 608 376 608 277 m 87 999 l 327 999 l 327 644 q 420 730 363 701 q 549 760 476 760 q 771 650 684 760 q 858 365 858 540 q 771 85 858 192 q 546 -21 685 -21 q 422 7 475 -21 q 328 96 369 36 l 328 0 l 87 0 l 87 999 "},"®":{"x_min":72,"x_max":1085,"ha":1157,"o":"m 517 693 l 517 545 l 571 545 q 647 562 622 545 q 672 616 672 580 q 646 674 672 656 q 562 693 620 693 l 517 693 m 364 789 l 588 789 q 767 748 706 789 q 829 628 829 707 q 797 534 829 573 q 711 478 766 494 l 834 233 l 666 233 l 561 455 l 517 455 l 517 233 l 364 233 l 364 789 m 578 914 q 420 884 494 914 q 289 797 347 854 q 195 660 227 736 q 164 498 164 583 q 193 343 164 417 q 282 211 223 270 q 417 118 341 151 q 577 86 493 86 q 735 116 659 86 q 870 205 810 147 q 961 338 930 262 q 993 498 993 413 q 963 657 993 582 q 876 788 933 731 q 739 882 815 850 q 578 914 664 914 m 578 1007 q 777 968 684 1007 q 943 854 871 929 q 1048 692 1012 783 q 1085 499 1085 602 q 1046 302 1085 394 q 935 140 1008 210 q 768 30 861 68 q 578 -7 676 -7 q 383 32 475 -7 q 218 146 291 71 q 109 310 147 220 q 72 499 72 401 q 112 696 72 602 q 226 863 152 790 q 387 970 297 934 q 578 1007 477 1007 "},"L":{"x_min":104,"x_max":844,"ha":851,"o":"m 104 0 l 104 999 l 360 999 l 360 216 l 844 216 l 844 0 l 104 0 "}," ":{"x_min":0,"x_max":0,"ha":410},"∑":{"x_min":33,"x_max":999,"ha":1031,"o":"m 48 999 l 954 999 l 954 794 l 385 794 l 789 381 l 392 -59 l 999 -59 l 999 -266 l 33 -266 l 33 -141 l 497 370 l 48 821 l 48 999 "},"À":{"x_min":0,"x_max":991,"ha":991,"o":"m 382 390 l 601 390 l 490 734 l 382 390 m 359 999 l 638 999 l 991 0 l 716 0 l 655 183 l 321 183 l 265 0 l 0 0 l 359 999 m 298 1338 l 492 1338 l 623 1088 l 518 1088 l 298 1338 "},"+":{"x_min":172,"x_max":985,"ha":1157,"o":"m 498 828 l 659 828 l 659 493 l 985 493 l 985 336 l 659 336 l 659 0 l 498 0 l 498 336 l 172 336 l 172 493 l 498 493 l 498 828 "},"½":{"x_min":82,"x_max":1231,"ha":1265,"o":"m 774 0 q 808 113 778 65 q 901 206 838 162 q 959 243 919 219 q 1018 282 999 267 q 1063 326 1048 303 q 1079 373 1079 349 q 1059 429 1079 409 q 1003 449 1039 449 q 943 423 963 449 q 923 348 923 397 l 781 348 q 841 497 781 441 q 1004 553 902 553 q 1167 504 1104 553 q 1231 379 1231 456 q 1211 301 1231 336 q 1145 225 1192 266 q 1062 170 1121 206 q 979 109 1004 134 l 1224 109 l 1224 0 l 774 0 m 285 0 l 860 985 l 984 985 l 408 0 l 285 0 m 222 421 l 222 774 l 82 774 l 82 859 l 94 859 q 211 882 172 859 q 255 957 250 906 l 375 957 l 375 421 l 222 421 "},"Ë":{"x_min":98,"x_max":873,"ha":928,"o":"m 98 0 l 98 999 l 856 999 l 856 794 l 354 794 l 354 618 l 813 618 l 813 418 l 354 418 l 354 204 l 873 204 l 873 0 l 98 0 m 514 1121 l 514 1304 l 684 1304 l 684 1121 l 514 1121 m 268 1121 l 268 1304 l 438 1304 l 438 1121 l 268 1121 "},"'":{"x_min":52,"x_max":201,"ha":252,"o":"m 52 975 l 201 975 l 201 595 l 52 595 l 52 975 "},"Š":{"x_min":51,"x_max":895,"ha":947,"o":"m 51 331 l 297 331 q 347 202 299 245 q 485 160 394 160 q 606 185 563 160 q 649 258 649 211 q 638 300 649 281 q 610 328 628 318 q 473 375 582 343 q 290 436 365 407 q 126 549 182 479 q 71 713 71 620 q 178 941 71 857 q 469 1026 286 1026 q 756 937 650 1026 q 862 697 862 848 l 621 697 q 571 799 612 766 q 453 833 530 833 q 352 807 391 833 q 314 742 314 782 q 498 617 314 676 q 549 601 531 606 l 559 597 q 796 498 749 536 q 869 405 844 458 q 895 287 895 352 q 780 55 895 138 q 460 -28 666 -28 q 164 61 265 -28 q 51 331 62 150 m 255 1338 l 359 1338 l 473 1203 l 586 1338 l 690 1338 l 559 1088 l 385 1088 l 255 1338 "},"˛":{"x_min":225,"x_max":469,"ha":694,"o":"m 428 0 q 367 -70 386 -39 q 348 -133 348 -102 q 360 -174 348 -161 q 399 -187 373 -187 l 469 -187 l 469 -317 l 418 -317 q 269 -286 313 -317 q 225 -183 225 -255 q 256 -87 225 -131 q 354 0 287 -43 l 428 0 "},"ð":{"x_min":46,"x_max":823,"ha":868,"o":"m 495 651 q 455 711 477 681 q 406 772 433 742 l 185 719 l 162 809 l 338 849 q 300 892 320 872 q 256 933 280 912 l 370 1035 q 463 965 419 1000 q 545 894 507 929 l 735 937 l 760 848 l 617 816 q 771 602 719 715 q 823 365 823 488 q 720 76 823 178 q 433 -26 618 -26 q 149 72 253 -26 q 46 340 46 171 q 135 587 46 496 q 375 679 224 679 q 441 672 412 679 q 495 651 470 665 m 432 518 q 327 468 364 518 q 290 328 290 419 q 327 190 290 238 q 432 142 364 142 q 539 190 501 142 q 577 328 577 239 q 539 468 577 419 q 432 518 501 518 "},"ş":{"x_min":50,"x_max":768,"ha":815,"o":"m 50 225 l 291 225 q 327 151 295 176 q 420 127 359 127 q 500 146 471 127 q 530 199 530 166 q 416 271 530 242 q 318 299 355 287 q 128 394 179 345 q 78 523 78 443 q 163 699 78 635 q 398 764 248 764 q 645 709 558 764 q 743 547 732 655 l 511 547 q 477 602 503 584 q 404 620 450 620 q 337 603 360 620 q 314 556 314 586 q 431 480 314 512 q 475 468 460 473 q 628 420 585 436 q 690 390 671 404 q 749 322 730 361 q 768 232 768 283 q 674 43 768 111 q 413 -24 580 -24 q 154 41 249 -24 q 50 225 59 106 m 245 -297 l 245 -204 q 346 -227 299 -219 q 428 -235 393 -235 q 472 -223 457 -235 q 487 -185 487 -211 q 467 -153 487 -164 q 406 -143 448 -143 q 383 -143 392 -143 q 369 -144 375 -143 l 369 0 l 446 0 l 446 -57 l 458 -57 q 574 -90 534 -57 q 615 -187 615 -124 q 570 -292 615 -255 q 442 -329 525 -329 q 354 -321 403 -329 q 245 -297 305 -313 "},"ı":{"x_min":85,"x_max":325,"ha":410,"o":"m 85 0 l 85 737 l 325 737 l 325 0 l 85 0 "},"Ć":{"x_min":57,"x_max":987.71875,"ha":1035,"o":"m 985 350 q 843 71 959 170 q 544 -28 727 -28 q 191 115 325 -28 q 57 491 57 258 q 193 878 57 734 q 559 1023 330 1023 q 856 927 741 1023 q 987 667 971 832 l 748 667 q 681 774 730 738 q 551 811 631 811 q 381 726 444 811 q 319 494 319 641 q 378 267 319 348 q 544 186 437 186 q 683 228 631 186 q 748 350 735 270 l 985 350 m 762 1338 l 541 1088 l 437 1088 l 567 1338 l 762 1338 "},"ä":{"x_min":46,"x_max":770,"ha":810,"o":"m 504 346 q 406 314 476 328 q 354 302 372 307 q 293 271 311 290 q 275 220 275 252 q 299 157 275 181 q 364 133 323 133 q 464 168 425 133 q 504 261 504 204 l 504 346 m 770 0 l 523 0 q 516 36 519 17 q 510 75 513 55 q 402 0 459 24 q 276 -24 345 -24 q 108 34 170 -24 q 46 192 46 93 q 94 341 46 284 q 241 421 142 398 q 379 448 295 434 q 504 508 504 468 l 504 525 q 479 574 504 557 q 407 591 455 591 q 325 569 356 591 q 288 508 295 548 l 66 508 q 169 693 83 632 q 413 755 255 755 q 579 731 511 755 q 684 659 646 707 q 722 576 711 624 q 733 423 733 529 l 733 143 q 742 65 733 93 q 770 27 751 36 l 770 0 m 443 860 l 443 1043 l 613 1043 l 613 860 l 443 860 m 197 860 l 197 1043 l 367 1043 l 367 860 l 197 860 "},"¹":{"x_min":86,"x_max":393,"ha":542,"o":"m 233 383 l 233 761 l 86 761 l 86 853 l 98 853 q 221 878 181 853 q 266 958 261 903 l 393 958 l 393 383 l 233 383 "},"£":{"x_min":36.828125,"x_max":793,"ha":819,"o":"m 125 -25 l 36 134 q 148 230 112 180 q 184 340 184 280 q 180 375 184 357 q 171 416 177 394 l 49 416 l 49 515 l 127 515 q 81 617 96 568 q 66 712 66 666 q 161 909 66 836 q 420 983 257 983 q 676 901 585 983 q 779 662 767 820 l 558 662 q 512 771 547 734 q 418 808 477 808 q 335 778 369 808 q 302 703 302 748 q 342 574 302 668 q 366 515 357 536 l 545 515 l 545 416 l 390 416 q 392 395 391 402 q 393 382 393 388 q 360 271 393 325 q 257 157 327 217 q 340 189 299 178 q 420 200 380 200 q 513 186 456 200 q 592 172 570 172 q 652 181 621 172 q 717 212 683 191 l 793 42 q 688 -7 740 9 q 585 -25 635 -25 q 458 3 547 -25 q 316 32 368 32 q 225 17 273 32 q 125 -25 176 2 "},"W":{"x_min":-7,"x_max":1325,"ha":1318,"o":"m 267 0 l -7 999 l 250 999 l 390 290 l 523 999 l 795 999 l 927 290 l 1068 999 l 1325 999 l 1050 0 l 800 0 l 658 718 l 517 0 l 267 0 "},"Ğ":{"x_min":56,"x_max":1010,"ha":1097,"o":"m 849 0 l 829 129 q 695 12 773 50 q 514 -26 617 -26 q 334 9 417 -26 q 189 112 252 44 q 89 279 123 183 q 56 487 56 374 q 195 880 56 732 q 568 1028 335 1028 q 858 939 744 1028 q 1003 693 972 851 l 758 693 q 683 790 733 757 q 561 823 633 823 q 383 733 451 823 q 316 497 316 644 q 382 266 316 352 q 561 181 449 181 q 709 226 650 181 q 782 353 767 271 l 559 353 l 559 545 l 1010 545 l 1010 0 l 849 0 m 335 1315 l 424 1315 q 458 1244 428 1267 q 548 1222 488 1222 q 639 1244 609 1222 q 672 1315 669 1267 l 761 1315 q 701 1157 752 1207 q 548 1107 650 1107 q 394 1158 446 1107 q 335 1315 341 1209 "},"v":{"x_min":-8,"x_max":786,"ha":777,"o":"m 265 0 l -8 737 l 247 737 l 388 223 l 531 737 l 786 737 l 513 0 l 265 0 "},">":{"x_min":179,"x_max":978,"ha":1157,"o":"m 179 823 l 978 492 l 978 334 l 179 5 l 179 177 l 758 413 l 179 651 l 179 823 "},"û":{"x_min":79,"x_max":784,"ha":868,"o":"m 784 737 l 784 0 l 548 0 l 548 102 q 450 11 505 40 q 324 -18 395 -18 q 140 44 202 -18 q 79 231 79 107 l 79 737 l 320 737 l 320 325 q 342 200 320 234 q 421 166 365 166 q 514 207 485 166 q 543 343 543 249 l 543 737 l 784 737 m 216 827 l 346 1077 l 520 1077 l 651 827 l 547 827 l 434 961 l 320 827 l 216 827 "},"Ð":{"x_min":0,"x_max":991,"ha":1048,"o":"m 364 210 l 502 210 q 675 279 620 210 q 731 498 731 349 q 676 717 731 648 q 502 787 621 787 l 364 787 l 364 605 l 546 605 l 546 458 l 364 458 l 364 210 m 107 0 l 107 458 l 0 458 l 0 605 l 107 605 l 107 999 l 532 999 q 873 869 755 999 q 991 498 991 740 q 868 124 991 248 q 499 0 746 0 l 107 0 "},"r":{"x_min":85,"x_max":560,"ha":586,"o":"m 85 0 l 85 737 l 316 737 l 316 607 q 413 718 355 683 q 560 755 471 753 l 560 515 q 529 518 544 517 q 500 520 513 520 q 408 503 444 520 q 350 452 371 486 q 330 386 336 429 q 325 247 325 343 l 325 0 l 85 0 "},"Č":{"x_min":57,"x_max":987.71875,"ha":1035,"o":"m 985 350 q 843 71 959 170 q 544 -28 727 -28 q 191 115 325 -28 q 57 491 57 258 q 193 878 57 734 q 559 1023 330 1023 q 856 927 741 1023 q 987 667 971 832 l 748 667 q 681 774 730 738 q 551 811 631 811 q 381 726 444 811 q 319 494 319 641 q 378 267 319 348 q 544 186 437 186 q 683 228 631 186 q 748 350 735 270 l 985 350 m 337 1338 l 441 1338 l 555 1203 l 668 1338 l 772 1338 l 641 1088 l 467 1088 l 337 1338 "},"x":{"x_min":-17,"x_max":776,"ha":755,"o":"m -17 0 l 242 384 l -6 737 l 277 737 l 378 560 l 483 737 l 764 737 l 515 384 l 776 0 l 494 0 l 377 202 l 263 0 l -17 0 "},"è":{"x_min":43,"x_max":790,"ha":829,"o":"m 284 447 l 558 447 q 520 558 556 518 q 421 599 484 599 q 326 559 361 599 q 284 447 290 520 m 545 233 l 777 233 q 650 44 745 111 q 413 -22 554 -22 q 142 82 242 -22 q 43 365 43 186 q 143 655 43 548 q 413 762 243 762 q 689 653 589 762 q 790 353 790 544 q 789 326 790 336 q 788 311 789 317 l 291 311 q 324 192 291 233 q 422 152 357 152 q 501 172 470 152 q 545 233 532 192 m 208 1077 l 402 1077 l 533 827 l 428 827 l 208 1077 "},"Ø":{"x_min":57,"x_max":1060,"ha":1116,"o":"m 758 702 l 399 242 q 470 198 429 213 q 559 183 510 183 q 737 264 675 183 q 799 498 799 346 q 788 610 799 558 q 758 702 778 662 m 350 312 l 704 766 q 637 802 672 790 q 559 814 601 814 q 379 732 441 814 q 317 498 317 651 q 325 394 317 442 q 350 312 333 345 m 86 -23 l 193 112 q 90 282 124 187 q 57 498 57 377 q 192 883 57 742 q 559 1025 327 1025 q 714 1006 642 1025 q 844 949 786 987 l 943 1077 l 1009 1026 l 909 897 q 1022 723 984 823 q 1060 498 1060 624 q 924 114 1060 256 q 558 -28 788 -28 q 391 -6 467 -28 q 257 58 315 15 l 152 -75 l 86 -23 "},"÷":{"x_min":173,"x_max":985,"ha":1157,"o":"m 579 251 q 658 218 625 251 q 691 138 691 185 q 658 59 691 92 q 579 27 626 27 q 499 59 532 27 q 467 138 467 92 q 500 217 467 184 q 579 251 533 251 m 173 493 l 985 493 l 985 336 l 173 336 l 173 493 m 579 802 q 658 768 625 802 q 691 689 691 735 q 658 610 691 643 q 578 578 625 578 q 499 610 531 578 q 467 689 467 643 q 500 768 467 735 q 579 802 533 802 "},"h":{"x_min":85,"x_max":790,"ha":868,"o":"m 85 0 l 85 999 l 326 999 l 326 642 q 423 729 368 701 q 552 757 477 757 q 729 693 668 757 q 790 507 790 629 l 790 0 l 549 0 l 549 371 q 527 537 549 501 q 447 573 505 573 q 353 530 383 573 q 324 395 324 488 l 324 0 l 85 0 "},".":{"x_min":79,"x_max":330,"ha":410,"o":"m 79 0 l 79 239 l 330 239 l 330 0 l 79 0 "},"f":{"x_min":17,"x_max":483,"ha":496,"o":"m 122 0 l 122 571 l 17 571 l 17 720 l 122 720 q 120 738 121 728 q 120 768 120 749 q 179 952 120 897 q 377 1007 239 1007 q 423 1005 396 1007 q 483 1002 450 1004 l 482 841 q 469 842 476 842 q 448 843 461 843 q 381 822 399 843 q 364 740 364 801 l 364 720 l 483 720 l 483 571 l 364 571 l 364 0 l 122 0 "},"“":{"x_min":61,"x_max":673.0625,"ha":733,"o":"m 669 793 l 669 554 l 417 554 l 417 727 q 480 937 417 863 q 673 1025 544 1011 l 673 942 q 569 889 602 923 q 537 800 537 855 l 537 793 l 669 793 m 313 793 l 313 554 l 61 554 l 61 727 q 124 937 61 863 q 317 1025 188 1011 l 317 942 q 213 889 246 923 q 180 800 180 855 l 180 793 l 313 793 "},"A":{"x_min":0,"x_max":991,"ha":991,"o":"m 382 390 l 601 390 l 490 734 l 382 390 m 359 999 l 638 999 l 991 0 l 716 0 l 655 183 l 321 183 l 265 0 l 0 0 l 359 999 "},"O":{"x_min":57,"x_max":1060,"ha":1116,"o":"m 317 498 q 379 264 317 345 q 556 183 441 183 q 736 264 673 183 q 799 498 799 345 q 736 732 799 650 q 556 814 673 814 q 379 732 441 814 q 317 498 317 651 m 57 498 q 191 883 57 742 q 556 1025 326 1025 q 924 883 788 1025 q 1060 498 1060 741 q 924 113 1060 255 q 556 -28 788 -28 q 191 113 326 -28 q 57 498 57 254 "},"π":{"x_min":4.0625,"x_max":1043,"ha":1038,"o":"m 1043 739 l 1016 582 l 895 582 l 804 0 l 562 0 l 652 582 l 496 582 l 403 0 l 164 0 l 254 582 l 236 582 q 188 557 207 582 q 163 492 168 533 l 4 492 q 88 686 26 633 q 299 739 150 739 l 1043 739 "},"‘":{"x_min":61,"x_max":317.0625,"ha":378,"o":"m 313 793 l 313 554 l 61 554 l 61 727 q 124 937 61 863 q 317 1025 188 1011 l 317 942 q 213 889 246 923 q 180 800 180 855 l 180 793 l 313 793 "},"3":{"x_min":37,"x_max":773,"ha":819,"o":"m 37 301 l 268 301 q 303 194 269 231 q 404 158 338 158 q 498 192 462 158 q 534 283 534 226 q 490 380 534 348 q 360 413 447 413 l 340 413 l 340 576 l 356 576 q 475 606 435 576 q 515 697 515 636 q 485 779 515 749 q 405 809 456 809 q 311 776 344 809 q 275 676 279 743 l 53 676 q 149 904 56 824 q 410 985 242 985 q 653 913 562 985 q 744 723 744 842 q 715 608 744 659 q 627 517 686 558 q 736 427 699 486 q 773 284 773 367 q 670 56 773 140 q 392 -28 568 -28 q 130 57 223 -28 q 37 301 38 143 "},"9":{"x_min":40,"x_max":771,"ha":819,"o":"m 395 807 q 302 765 336 807 q 269 649 269 724 q 302 534 269 575 q 395 494 335 494 q 490 534 457 494 q 523 651 523 575 q 489 765 523 724 q 395 807 455 807 m 61 229 l 279 229 q 316 163 291 184 q 381 143 341 143 q 484 203 446 143 q 529 382 521 264 q 443 331 489 348 q 348 315 397 315 q 122 399 205 315 q 40 631 40 484 q 134 891 40 796 q 394 986 229 986 q 673 857 575 986 q 771 489 771 729 q 665 106 771 242 q 368 -29 559 -29 q 153 40 235 -29 q 61 229 71 109 "},"l":{"x_min":83,"x_max":324,"ha":410,"o":"m 83 0 l 83 999 l 324 999 l 324 0 l 83 0 "},"":{"x_min":17,"x_max":825,"ha":907,"o":"m 583 803 l 583 998 l 825 998 l 825 803 l 583 803 m 583 0 l 583 737 l 825 737 l 825 0 l 583 0 m 122 0 l 122 587 l 17 587 l 17 737 l 122 737 q 120 753 121 745 q 120 779 120 762 q 184 954 120 901 q 398 1008 248 1008 q 449 1007 432 1008 q 483 1005 467 1006 l 483 841 q 470 842 477 842 q 450 843 462 843 q 381 824 400 843 q 362 759 362 806 q 363 748 362 756 q 364 737 364 741 l 483 737 l 483 587 l 364 587 l 364 0 l 122 0 "},"4":{"x_min":33,"x_max":782,"ha":819,"o":"m 449 363 l 449 741 l 204 363 l 449 363 m 443 0 l 443 193 l 33 193 l 33 380 l 405 958 l 679 958 l 679 369 l 782 369 l 782 193 l 679 193 l 679 0 l 443 0 "},"Ü":{"x_min":92,"x_max":932,"ha":1023,"o":"m 92 999 l 344 999 l 344 374 q 382 227 344 271 q 512 184 421 184 q 639 227 600 184 q 678 374 678 271 l 678 999 l 932 999 l 932 405 q 907 205 932 279 q 826 79 883 130 q 689 -1 767 25 q 513 -28 611 -28 q 336 -1 414 -28 q 199 79 258 25 q 117 206 142 131 q 92 405 92 281 l 92 999 m 550 1121 l 550 1304 l 720 1304 l 720 1121 l 550 1121 m 304 1121 l 304 1304 l 474 1304 l 474 1121 l 304 1121 "},"à":{"x_min":46,"x_max":770,"ha":810,"o":"m 504 346 q 406 314 476 328 q 354 302 372 307 q 293 271 311 290 q 275 220 275 252 q 299 157 275 181 q 364 133 323 133 q 464 168 425 133 q 504 261 504 204 l 504 346 m 770 0 l 523 0 q 516 36 519 17 q 510 75 513 55 q 402 0 459 24 q 276 -24 345 -24 q 108 34 170 -24 q 46 192 46 93 q 94 341 46 284 q 241 421 142 398 q 379 448 295 434 q 504 508 504 468 l 504 525 q 479 574 504 557 q 407 591 455 591 q 325 569 356 591 q 288 508 295 548 l 66 508 q 169 693 83 632 q 413 755 255 755 q 579 731 511 755 q 684 659 646 707 q 722 576 711 624 q 733 423 733 529 l 733 143 q 742 65 733 93 q 770 27 751 36 l 770 0 m 198 1077 l 392 1077 l 523 827 l 418 827 l 198 1077 "},"ó":{"x_min":43,"x_max":826,"ha":868,"o":"m 291 369 q 328 214 291 268 q 433 160 365 160 q 540 214 502 160 q 578 369 578 269 q 540 523 578 469 q 433 578 502 578 q 327 524 364 578 q 291 369 291 470 m 43 369 q 146 659 43 555 q 433 764 250 764 q 721 659 617 764 q 826 369 826 555 q 721 79 826 184 q 433 -25 617 -25 q 146 79 249 -25 q 43 369 43 183 m 641 1077 l 420 827 l 316 827 l 446 1077 l 641 1077 "}}}
